/* XPM */
static char *CorsixTH[] = {
/* columns rows colors chars-per-pixel */
"32 32 123 2",
"   c #030303",
".  c #050805",
"X  c #0B0B0B",
"o  c #051305",
"O  c #021D02",
"+  c #0B150B",
"@  c #0D1F0D",
"#  c #131313",
"$  c #191919",
"%  c #022302",
"&  c #022A02",
"*  c #072308",
"=  c #0B250B",
"-  c #0B2B0C",
";  c #033203",
":  c #033D04",
">  c #132813",
",  c #113712",
"<  c #1C3B1D",
"1  c #272727",
"2  c #282828",
"3  c #203720",
"4  c #233B24",
"5  c #2B352C",
"6  c #273E28",
"7  c #373D37",
"8  c #3C3F3F",
"9  c #024403",
"0  c #014D01",
"q  c #0D4E0E",
"w  c #035204",
"e  c #015C01",
"r  c #0F4111",
"t  c #124312",
"y  c #0F5E10",
"u  c #155B16",
"i  c #1A531A",
"p  c #195D1A",
"a  c #026303",
"s  c #016B01",
"d  c #0A610C",
"f  c #037404",
"g  c #047B05",
"h  c #067F08",
"j  c #0A7C0C",
"k  c #0E6E10",
"l  c #146116",
"z  c #126D14",
"x  c #1C631C",
"c  c #1A6A1C",
"v  c #0E7510",
"b  c #127714",
"n  c #167F18",
"m  c #1F5E20",
"M  c #204721",
"N  c #2C412C",
"B  c #284A28",
"V  c #255626",
"C  c #235C25",
"Z  c #2C5C2D",
"A  c #345F34",
"S  c #1F6521",
"D  c #1D6920",
"F  c #226223",
"G  c #206D24",
"H  c #237425",
"J  c #277228",
"K  c #2A712C",
"L  c #336133",
"P  c #366A37",
"I  c #386D3A",
"U  c #3B743B",
"Y  c #3F4940",
"T  c #444745",
"R  c #4A4E4A",
"E  c #4F5251",
"W  c #585A5A",
"Q  c #457445",
"!  c #487049",
"~  c #556855",
"^  c #4F7550",
"/  c #567557",
"(  c #527C53",
")  c #666666",
"_  c #646F64",
"`  c #6D6D6D",
"'  c #737373",
"]  c #797979",
"[  c #058107",
"{  c #068508",
"}  c #078B09",
"|  c #088D0B",
" . c #09940C",
".. c #0B9B0E",
"X. c #0E8411",
"o. c #0E8C12",
"O. c #0E9712",
"+. c #0C9E10",
"@. c #0DA411",
"#. c #0EA812",
"$. c #4C824C",
"%. c #528253",
"&. c #638B64",
"*. c #6D866E",
"=. c #768E76",
"-. c #818181",
";. c #8A8A8A",
":. c #859F85",
">. c #889788",
",. c #889B88",
"<. c #959799",
"1. c #9BA89B",
"2. c #C0C1C0",
"3. c #C6CAC6",
"4. c #CACDCA",
"5. c #CDD1CD",
"6. c #D0D2D0",
"7. c #D7D8D7",
"8. c #DCDCDC",
"9. c #E4E4E4",
"0. c #EBEBEB",
"q. c #F2F2F2",
"w. c None",
/* pixels */
"w.w.' ' ' ' ' ] ] ] ] ] ] ] ] ] ] ] ] ] ' ' ' ' ' ` ' ` ` ` ) w.",
"w.9.9.9.0.0.0.0.0.9.9.0.0.9.9.0.# # # # # X X X X .         2 ` ",
"` 9.0.9.9.0.0.0.0.0.q.0.:.&.&.&.- = @ + X # # X X X .         ` ",
"' 0.0.0.0.0.0.0.q.0.0.0.J  .| | } { h g O # # # X X X         ` ",
"] 0.0.0.0.0.0.q.q.0.q.0.H  . .|  .| } [ % # # # # X X .       ` ",
"] 0.0.0.0.q.3._ 7.q.q.q.D  ... . . .| } & # # # # X X X .     ` ",
"] 0.0.q.q.q.A v , ~ 9.8.x +.+.+. . . .| ; $ $ # + % + X . .   ` ",
"] 0.0.q.0.>.j +.+.v < R z @.+.+.+... . .o $ @ : a s o X .     ` ",
"] 0.q.q.9.m +...@.+.+.i m @.@.@.......j . : g [ f f : O X .   ' ",
"-.q.0.q./  .+.+.@.@.@.@.M V +.@.@...q * j | } [ g f s O X .   ` ",
"-.0.q.4.z ..+.@.@.@.@.@.@.Z N m t > t  . . .| [ g f s 9 O X . ' ",
"-.q.q.P ....@.@.@.#.#.#.#.#.X.7 t  .@... . .| [ h f f s * X   ` ",
"-.q.q.! X.@.+.@.#.#.#.#.#.#.@.N +.@.@..... . .} h g f s 9 % . ' ",
"-.q.q.q.,.c @.@.#.#.#.#.#.#.#.N +.@.@.+... .| } [ g f s 0 o . ` ",
"-.q.q.q.q.7.A O.#.#.#.@.@.@.#.4 @.@.@.+..... .} [ h w * X X . ' ",
"-.0.q.q.q.q.0.B @.#.#.#.#.#.#.3 @.@.@.@... . .| f 9 # X X X X ` ",
"-.q.q.q.q.1.K +.#.#.#.#.#.#.#.3 #.@.@.@.....| | : + # X X X X ` ",
"-.0.q.5.I X.@.@.@.#.#.#.#.#.#.3 @.@.@.+... .| | [ 0 % X X X X ` ",
"=.0.9.l ..+.+.@.#.#.#.#.#.#.#.< @.@.@..... .| } [ g a & + . . ` ",
"] q.q.U  .+.+.@.@.#.#.@.#.#.#.< @.@.@..... .| } [ g f a & . . ` ",
"] q.0.4.v ....@.@.@.@.@.@.#.D 5 c +..... . .| { [ f s s % .   ` ",
"] 0.0.0.Q O.+...@.+.@.@.@.o.T W E j .... .| } [ h f s w . .   ` ",
"' 0.0.q.6.k  ...+.@.+.v @.X.E <.Y j  .O. .| { h f f a O .     ` ",
"] 0.0.0.0.^  . .O.S *.$...@.L Y < O. .w : [ { h f f : . .     ) ",
"' 0.0.0.0.7.i m *.9.0.%.+.+....... . .9 # = w f f e X . .     ` ",
"' 9.9.0.0.0.2.9.0.0.0.%...O. ... . .| 9 # # X - e O .         ) ",
"' 9.9.0.0.9.0.0.0.0.0.%.|  . .| | | } : X # X X o .           ` ",
"' 9.9.9.9.0.9.9.9.0.9.( | | | | } } [ & X X X X . .           ) ",
"` 9.9.9.9.9.9.9.9.9.0.=.S l y y a f f O X . . .               ` ",
") 9.8.9.9.9.9.9.9.9.9.9.9.9.9.8.+ X X X X . .                 ` ",
"w.8.8.9.9.9.9.9.9.9.9.9.9.9.9.9.X . . .                     1 ;.",
"w.w.) ) ` ` ` ` ` ` ` ` ` ` ` ` ' ' ` ' ` ` ` ` ) ` ` ) ` ' ;.w."
};
