<?xml version="1.0" encoding="UTF-8" standalone="no"?>
<!-- Created with Inkscape (http://www.inkscape.org/) -->

<svg
   xmlns:dc="http://purl.org/dc/elements/1.1/"
   xmlns:cc="http://creativecommons.org/ns#"
   xmlns:rdf="http://www.w3.org/1999/02/22-rdf-syntax-ns#"
   xmlns:svg="http://www.w3.org/2000/svg"
   xmlns="http://www.w3.org/2000/svg"
   xmlns:xlink="http://www.w3.org/1999/xlink"
   xmlns:sodipodi="http://sodipodi.sourceforge.net/DTD/sodipodi-0.dtd"
   xmlns:inkscape="http://www.inkscape.org/namespaces/inkscape"
   width="405.12375"
   height="405.125"
   id="svg3174"
   version="1.1"
   inkscape:version="0.48.1 "
   sodipodi:docname="Logo Icon.svg"
   inkscape:export-filename="C:\Users\Wolter van der Velde\Documents\Archief\TH\Afbeeldingen\Logo\48.png"
   inkscape:export-xdpi="10.663376"
   inkscape:export-ydpi="10.663376"
   style="display:inline">
  <defs
     id="defs3176">
    <linearGradient
       id="linearGradient4196">
      <stop
         style="stop-color:#141414;stop-opacity:1;"
         offset="0"
         id="stop4198" />
      <stop
         style="stop-color:#2c2c2c;stop-opacity:1;"
         offset="1"
         id="stop4200" />
    </linearGradient>
    <linearGradient
       id="linearGradient4111">
      <stop
         style="stop-color:#ffffff;stop-opacity:1;"
         offset="0"
         id="stop4113" />
      <stop
         style="stop-color:#dcdcdc;stop-opacity:1;"
         offset="1"
         id="stop4115" />
    </linearGradient>
    <linearGradient
       id="linearGradient4103">
      <stop
         style="stop-color:#3e3e3e;stop-opacity:1;"
         offset="0"
         id="stop4105" />
      <stop
         style="stop-color:#000000;stop-opacity:1;"
         offset="1"
         id="stop4107" />
    </linearGradient>
    <linearGradient
       id="linearGradient3881">
      <stop
         style="stop-color:#ffffff;stop-opacity:0.28225806;"
         offset="0"
         id="stop3883" />
      <stop
         id="stop3885"
         offset="1"
         style="stop-color:#35383a;stop-opacity:0.33870968;" />
    </linearGradient>
    <linearGradient
       id="linearGradient3869">
      <stop
         id="stop3871"
         offset="0"
         style="stop-color:#323c41;stop-opacity:1;" />
      <stop
         style="stop-color:#bfc2c4;stop-opacity:1;"
         offset="0.47168705"
         id="stop3873" />
      <stop
         id="stop3875"
         offset="1"
         style="stop-color:#474f55;stop-opacity:1;" />
    </linearGradient>
    <linearGradient
       id="linearGradient3843">
      <stop
         style="stop-color:#090909;stop-opacity:1;"
         offset="0"
         id="stop3845" />
      <stop
         style="stop-color:#232323;stop-opacity:1;"
         offset="1"
         id="stop3847" />
    </linearGradient>
    <linearGradient
       id="linearGradient4042">
      <stop
         style="stop-color:#21ff2c;stop-opacity:0.39830509;"
         offset="0"
         id="stop4044" />
      <stop
         style="stop-color:#006a00;stop-opacity:1;"
         offset="0.77741802"
         id="stop4046" />
    </linearGradient>
    <radialGradient
       inkscape:collect="always"
       xlink:href="#linearGradient3881"
       id="radialGradient3859"
       gradientUnits="userSpaceOnUse"
       gradientTransform="matrix(1,0,0,1.0176175,0,-10.859551)"
       cx="182.81557"
       cy="616.4082"
       fx="182.81557"
       fy="616.4082"
       r="9.1531897" />
    <radialGradient
       inkscape:collect="always"
       xlink:href="#linearGradient3881"
       id="radialGradient3869"
       gradientUnits="userSpaceOnUse"
       gradientTransform="matrix(1.2315113,-0.01218067,0.01149812,1.1625025,123.32295,-230.87052)"
       cx="181.93054"
       cy="616.80823"
       fx="181.93054"
       fy="616.80823"
       r="13.113482" />
    <radialGradient
       inkscape:collect="always"
       xlink:href="#linearGradient4103"
       id="radialGradient4123"
       gradientUnits="userSpaceOnUse"
       gradientTransform="matrix(1.4138716,3.7581171e-8,-3.4897058e-8,1.3128908,-142.55404,-522.17495)"
       cx="325.68497"
       cy="1693.2343"
       fx="325.68497"
       fy="1693.2343"
       r="200.17188" />
    <radialGradient
       inkscape:collect="always"
       xlink:href="#linearGradient4111"
       id="radialGradient4125"
       gradientUnits="userSpaceOnUse"
       gradientTransform="matrix(1.4489327,1.8682939e-8,-1.734859e-8,1.3454474,-152.24915,-582.85858)"
       cx="324.49527"
       cy="1697.365"
       fx="324.49527"
       fy="1697.3651"
       r="195.32812" />
    <radialGradient
       inkscape:collect="always"
       xlink:href="#linearGradient4103"
       id="radialGradient4184"
       cx="39.358936"
       cy="415.0343"
       fx="39.358936"
       fy="415.0343"
       r="130.15189"
       gradientTransform="matrix(1,0,0,0.89653672,0,10.091301)"
       gradientUnits="userSpaceOnUse" />
    <radialGradient
       inkscape:collect="always"
       xlink:href="#linearGradient4103"
       id="radialGradient4186"
       gradientUnits="userSpaceOnUse"
       gradientTransform="matrix(0.44139636,0,0,0.43508302,50.199768,209.09258)"
       cx="-116.10342"
       cy="380.00589"
       fx="-116.10342"
       fy="380.00589"
       r="130.15189" />
    <linearGradient
       id="linearGradient4042-4">
      <stop
         style="stop-color:#21ff2c;stop-opacity:0.39830509;"
         offset="0"
         id="stop4044-3" />
      <stop
         style="stop-color:#006a00;stop-opacity:1;"
         offset="0.77741802"
         id="stop4046-4" />
    </linearGradient>
    <linearGradient
       id="linearGradient3843-8">
      <stop
         style="stop-color:#090909;stop-opacity:1;"
         offset="0"
         id="stop3845-1" />
      <stop
         style="stop-color:#232323;stop-opacity:1;"
         offset="1"
         id="stop3847-7" />
    </linearGradient>
    <linearGradient
       id="linearGradient4196-3">
      <stop
         style="stop-color:#171717;stop-opacity:1;"
         offset="0"
         id="stop4198-1" />
      <stop
         style="stop-color:#313131;stop-opacity:1;"
         offset="1"
         id="stop4200-9" />
    </linearGradient>
    <linearGradient
       id="linearGradient3881-1">
      <stop
         style="stop-color:#ffffff;stop-opacity:0.28225806;"
         offset="0"
         id="stop3883-8" />
      <stop
         id="stop3885-2"
         offset="1"
         style="stop-color:#35383a;stop-opacity:0.33870968;" />
    </linearGradient>
    <linearGradient
       id="linearGradient3869-7">
      <stop
         id="stop3871-0"
         offset="0"
         style="stop-color:#323c41;stop-opacity:1;" />
      <stop
         style="stop-color:#bfc2c4;stop-opacity:1;"
         offset="0.47168705"
         id="stop3873-0" />
      <stop
         id="stop3875-7"
         offset="1"
         style="stop-color:#474f55;stop-opacity:1;" />
    </linearGradient>
    <radialGradient
       inkscape:collect="always"
       xlink:href="#linearGradient4042-4"
       id="radialGradient4380"
       cx="331.15625"
       cy="441.51154"
       fx="331.15625"
       fy="441.51154"
       r="114.60079"
       gradientTransform="matrix(0.22384791,1.6576284,-1.4344324,0.1937073,889.71836,-211.15407)"
       gradientUnits="userSpaceOnUse" />
    <linearGradient
       inkscape:collect="always"
       xlink:href="#linearGradient3869"
       id="linearGradient4387"
       x1="175.55019"
       y1="619.28473"
       x2="190.13467"
       y2="612.74402"
       gradientUnits="userSpaceOnUse" />
    <linearGradient
       inkscape:collect="always"
       xlink:href="#linearGradient3869"
       id="linearGradient4391"
       x1="345.96069"
       y1="474.71167"
       x2="368.40686"
       y2="490.66577"
       gradientUnits="userSpaceOnUse" />
    <linearGradient
       inkscape:collect="always"
       xlink:href="#linearGradient4196"
       id="linearGradient4403"
       gradientUnits="userSpaceOnUse"
       x1="183.94894"
       y1="605.26782"
       x2="186.02235"
       y2="513.76227" />
    <linearGradient
       inkscape:collect="always"
       xlink:href="#linearGradient3843"
       id="linearGradient4405"
       gradientUnits="userSpaceOnUse"
       x1="183.94894"
       y1="605.26782"
       x2="186.02235"
       y2="513.76227" />
    <radialGradient
       inkscape:collect="always"
       xlink:href="#linearGradient3881"
       id="radialGradient5085"
       gradientUnits="userSpaceOnUse"
       gradientTransform="matrix(1.2315113,-0.01218067,0.01149812,1.1625025,123.32295,-230.87052)"
       cx="181.93054"
       cy="616.80823"
       fx="181.93054"
       fy="616.80823"
       r="13.113482" />
    <linearGradient
       inkscape:collect="always"
       xlink:href="#linearGradient3869"
       id="linearGradient5088"
       gradientUnits="userSpaceOnUse"
       x1="345.96069"
       y1="474.71167"
       x2="368.40686"
       y2="490.66577" />
    <radialGradient
       inkscape:collect="always"
       xlink:href="#linearGradient3881"
       id="radialGradient5091"
       gradientUnits="userSpaceOnUse"
       gradientTransform="matrix(1,0,0,1.0176175,172.53405,-143.79562)"
       cx="182.81557"
       cy="616.4082"
       fx="182.81557"
       fy="616.4082"
       r="9.1531897" />
    <linearGradient
       inkscape:collect="always"
       xlink:href="#linearGradient3843"
       id="linearGradient5094"
       gradientUnits="userSpaceOnUse"
       x1="183.94894"
       y1="605.26782"
       x2="186.02235"
       y2="513.76227"
       gradientTransform="translate(172.53405,-132.93607)" />
    <linearGradient
       inkscape:collect="always"
       xlink:href="#linearGradient4196"
       id="linearGradient5096"
       gradientUnits="userSpaceOnUse"
       x1="183.94894"
       y1="605.26782"
       x2="186.02235"
       y2="513.76227"
       gradientTransform="translate(172.53405,-132.93607)" />
    <linearGradient
       inkscape:collect="always"
       xlink:href="#linearGradient3869"
       id="linearGradient5099"
       gradientUnits="userSpaceOnUse"
       x1="175.55019"
       y1="619.28473"
       x2="190.13467"
       y2="612.74402"
       gradientTransform="translate(172.53405,-132.93607)" />
    <radialGradient
       inkscape:collect="always"
       xlink:href="#linearGradient4042-4"
       id="radialGradient5102"
       gradientUnits="userSpaceOnUse"
       gradientTransform="matrix(0.22384791,1.6576284,-1.4344324,0.1937073,889.71836,-211.15407)"
       cx="331.15625"
       cy="441.51154"
       fx="331.15625"
       fy="441.51154"
       r="114.60079" />
    <radialGradient
       inkscape:collect="always"
       xlink:href="#linearGradient3881"
       id="radialGradient3070"
       gradientUnits="userSpaceOnUse"
       gradientTransform="matrix(1.8180054,-0.01798159,0.01697398,1.7161319,-148.38648,-772.51519)"
       cx="181.93054"
       cy="616.80823"
       fx="181.93054"
       fy="616.80823"
       r="13.113482" />
    <linearGradient
       inkscape:collect="always"
       xlink:href="#linearGradient3869"
       id="linearGradient3072"
       gradientUnits="userSpaceOnUse"
       x1="345.96069"
       y1="474.71167"
       x2="368.40686"
       y2="490.66577"
       gradientTransform="matrix(1.4762394,0,0,1.4762394,-330.44067,-431.69505)" />
    <radialGradient
       inkscape:collect="always"
       xlink:href="#linearGradient3881"
       id="radialGradient3074"
       gradientUnits="userSpaceOnUse"
       gradientTransform="matrix(1.4762393,0,0,1.5022469,-75.739117,-643.9718)"
       cx="182.81557"
       cy="616.4082"
       fx="182.81557"
       fy="616.4082"
       r="9.1531897" />
    <linearGradient
       inkscape:collect="always"
       xlink:href="#linearGradient3843"
       id="linearGradient3076"
       gradientUnits="userSpaceOnUse"
       gradientTransform="matrix(1.4762393,0,0,1.4762393,-75.739117,-627.9405)"
       x1="183.94894"
       y1="605.26782"
       x2="186.02235"
       y2="513.76227" />
    <linearGradient
       inkscape:collect="always"
       xlink:href="#linearGradient4196"
       id="linearGradient3078"
       gradientUnits="userSpaceOnUse"
       gradientTransform="matrix(1.4762393,0,0,1.4762393,-75.739117,-627.9405)"
       x1="183.94894"
       y1="605.26782"
       x2="186.02235"
       y2="513.76227" />
    <linearGradient
       inkscape:collect="always"
       xlink:href="#linearGradient3869"
       id="linearGradient3080"
       gradientUnits="userSpaceOnUse"
       gradientTransform="matrix(1.4762394,0,0,1.4762394,-75.739112,-627.94051)"
       x1="175.55019"
       y1="619.28473"
       x2="190.13467"
       y2="612.74402" />
    <radialGradient
       inkscape:collect="always"
       xlink:href="#linearGradient4042-4"
       id="radialGradient3082"
       gradientUnits="userSpaceOnUse"
       gradientTransform="matrix(0.33045309,2.4470562,-2.1175655,0.28595833,982.99657,-743.40899)"
       cx="331.15625"
       cy="441.51154"
       fx="331.15625"
       fy="441.51154"
       r="114.60079" />
  </defs>
  <sodipodi:namedview
     id="base"
     pagecolor="#ffffff"
     bordercolor="#666666"
     borderopacity="1.0"
     inkscape:pageopacity="0.0"
     inkscape:pageshadow="2"
     inkscape:zoom="1.4142136"
     inkscape:cx="286.75081"
     inkscape:cy="153.68504"
     inkscape:document-units="px"
     inkscape:current-layer="layer3"
     showgrid="false"
     inkscape:window-width="1842"
     inkscape:window-height="1053"
     inkscape:window-x="69"
     inkscape:window-y="-9"
     inkscape:window-maximized="1"
     showguides="true"
     inkscape:guide-bbox="true"
     fit-margin-top="0"
     fit-margin-left="4.78"
     fit-margin-right="0"
     fit-margin-bottom="0"
     inkscape:snap-page="false"
     inkscape:showpageshadow="false" />
  <metadata
     id="metadata3179">
    <rdf:RDF>
      <cc:Work
         rdf:about="">
        <dc:format>image/svg+xml</dc:format>
        <dc:type
           rdf:resource="http://purl.org/dc/dcmitype/StillImage" />
        <dc:title></dc:title>
      </cc:Work>
    </rdf:RDF>
  </metadata>
  <g
     inkscape:groupmode="layer"
     id="layer2"
     inkscape:label="Background"
     style="display:inline"
     transform="translate(-157.14233,-278.96373)"
     sodipodi:insensitive="true">
    <g
       transform="matrix(1.5467694,0,0,1.5467694,196.85578,145.57944)"
       id="g4133"
       style="fill:#000000;fill-opacity:1;stroke:none;display:inline">
      <g
         style="font-size:69.66444397px;font-style:normal;font-variant:normal;font-weight:normal;font-stretch:normal;line-height:125%;letter-spacing:0px;word-spacing:0px;fill:#000000;font-family:'Champagne &amp; Limousines';-inkscape-font-specification:'Champagne &amp; Limousines'"
         id="text4135" />
      <g
         transform="scale(0.99994501,1.000055)"
         style="font-size:64.90923309px;font-style:normal;font-variant:normal;font-weight:900;font-stretch:normal;line-height:125%;letter-spacing:0px;word-spacing:0px;fill:#000000;font-family:Arial Black;-inkscape-font-specification:'Arial Black, Heavy'"
         id="text4139" />
    </g>
    <g
       id="g4119"
       transform="translate(-179.59705,-1523.6617)">
      <path
         id="path4166-0"
         transform="translate(157.30063,278.87543)"
         style="fill:url(#radialGradient4123);fill-opacity:1;stroke:none;display:inline"
         d="m 381.96875,1523.75 0,4.8438 -173.9375,0 c -13.83744,0 -23.8125,11.4497 -23.8125,23.875 l 0,347.7812 c 0,13.2638 10.26904,23.8125 23.65625,23.8125 l 174.09375,0 0,4.8125 177.96875,0 c 14.38994,0 24.625,-8.9464 24.625,-24.625 l 0,-351.75 c 0,-15.3331 -12.57931,-28.7497 -28.75,-28.75 -60.83839,0 -113.00536,0 -173.84375,0 z m 0,4.9062 173.84375,0 c 14.36505,0 23.8125,11.3141 23.8125,23.875 l 0,351.8438 c 0,10.8388 -8.72376,19.5625 -19.5625,19.5625 l -178.09375,0 0,-4.6875 173.84375,0 c 10.58066,0 19.09375,-8.5131 19.09375,-19.0938 l 0,-347.6562 c 0,-10.5807 -8.51309,-19.0938 -19.09375,-19.0938 l -173.84375,0 0,385.8126 -173.8125,0 c -10.58065,-2e-4 -19.09375,-8.5135 -19.09375,-19.0938 l 0,-347.625 c 0,-10.5804 8.5131,-19.0938 19.09375,-19.0938 l 173.8125,0 z"
         inkscape:connector-curvature="0"
         sodipodi:nodetypes="ccssssccssscccssssccsssscccssscc" />
      <path
         transform="translate(157.30063,278.87543)"
         id="path4160-3"
         d="m 381.96875,1528.5625 0,4.8437 173.84375,0 c 10.58065,0 19.09375,8.5135 19.09375,19.0938 l 0,347.625 c 0,10.5803 -8.5131,19.0938 -19.09375,19.0938 l -173.84375,0 0,-385.8126 -173.8125,0 c -10.58066,0 -19.09375,8.5131 -19.09375,19.0938 l 0,347.6562 c 0,10.5806 8.51309,19.0938 19.09375,19.0938 l 173.8125,0 0,4.8125 178.1875,0 c 10.84515,0 19.5625,-8.7178 19.5625,-19.5625 l 0,-352 c 0,-12.813 -10.27285,-23.9375 -23.90625,-23.9375 l -173.84375,0 z"
         style="fill:url(#radialGradient4125);fill-opacity:1;stroke:none;display:inline"
         inkscape:connector-curvature="0" />
    </g>
  </g>
  <g
     inkscape:label="Pawn"
     inkscape:groupmode="layer"
     id="layer1"
     style="display:inline"
     transform="translate(-157.14233,-278.96373)">
    <path
       id="path4382"
       style="font-size:medium;font-style:normal;font-variant:normal;font-weight:normal;font-stretch:normal;text-indent:0;text-align:start;text-decoration:none;line-height:normal;letter-spacing:normal;word-spacing:normal;text-transform:none;direction:ltr;block-progression:tb;writing-mode:lr-tb;text-anchor:start;baseline-shift:baseline;color:#000000;fill:#006a00;fill-opacity:1;stroke:none;stroke-width:2;marker:none;visibility:visible;display:inline;overflow:visible;enable-background:accumulate;font-family:Sans;-inkscape-font-specification:Sans"
       d="m 395.86684,641.65711 c 11.137,-2.0073 17.4327,-4.166 21.0659,-7.2231 3.5076,-2.9515 3.618,-3.6714 0.969,-6.3204 -2.6091,-2.6091 -3.4408,-2.5228 -4.8181,0.5 -0.6265,1.375 -1.5729,2.5 -2.1031,2.5 -1.0884,0 -0.6805,-3.1026 0.7423,-5.6449 1.5114,-2.7007 -0.1317,-6.437 -8.5953,-19.5453 -9.7262,-15.0635 -22.2566,-36.8072 -24.5382,-42.5801 -2.2702,-5.7443 -2.1571,-12.8834 0.2761,-17.4233 1.432,-2.6717 1.6351,-3.7973 0.75,-4.1562 -0.6675,-0.2708 1.1222,-0.5279 3.9773,-0.5713 2.855,-0.043 5.3988,-0.4164 5.6528,-0.8289 0.2541,-0.4125 0.7496,-10.425 1.1013,-22.25 0.7159,-24.0747 1.1155,-28.0001 2.8502,-28 0.6626,0 10.5801,6.075 22.0389,13.5 11.4589,7.425 21.204,13.5 21.656,13.5 0.4519,0 8.7901,-12.4204 18.5293,-27.6008 14.6574,-22.8463 17.4727,-27.8141 16.344,-28.8399 -0.7499,-0.6816 -10.4704,-7.0169 -21.601,-14.0785 -11.1306,-7.0616 -20.0349,-13.0418 -19.7874,-13.2893 0.2475,-0.2475 10.1555,5.7445 22.0178,13.3155 11.8623,7.571 21.8542,13.4792 22.2041,13.1292 0.8199,-0.8199 2.8039,0.5628 -20.7968,-14.494 -11.3299,-7.2282 -21.3424,-13.1422 -22.25,-13.1422 -4.0682,0 -0.2495,-2.4658 20.0998,-12.9783 11.9625,-6.1799 22.1353,-11.5957 22.6062,-12.0352 0.7103,-0.6628 -27.9765,-56.7439 -30.3335,-59.3004 -0.4127,-0.4476 -10.5447,4.4118 -22.5155,10.7985 -11.9708,6.3868 -21.1981,10.6826 -22.0039,10.9168 -1.1479,0.3335 -3.5598,2.2167 -5.8762,4.2815 -0.6797,0.6059 -0.9114,1.2168 -1.7536,2.0068 -3.7345,3.5031 -7.3545,5.8984 -12.1578,8.3857 -5.9584,3.0853 -9.3149,4.3065 -15.781,6.8172 -2.2498,0.8736 -2.499,1.3404 -2.7103,3.2224 -0.9276,8.2629 -2.0308,38.4469 -2.1247,60.885 l -0.0701,11.96404 c 0,0 2.66261,0.88505 3.982,1.36146 8.21422,2.966 11.5923,14.5757 6.8077,21.6745 -8.4071,12.4733 -27.4422,6.61641 -27.43412,-8.48629 0.003,-6.2084 2.93842,-10.29591 7.83902,-12.93511 1.58204,-0.852 2.26303,-1.03099 3.93851,-1.4155 l 0.25569,-33.0804 c -0.097,-12.7603 0.6072,-26.1725 0.8823,-38.7104 0.047,-2.1375 -0.2418,-3.5219 -1.7161,-4.6283 -2.1661,-1.6256 -6.2338,-3.7119 -6.2338,-3.7119 -4.4821,-2.4927 -7.3737,-4.4395 -10.2786,-6.7307 -2.644,-2.0853 -5.3602,-4.3655 -7.6559,-7.4832 -0.3053,-0.4147 -0.5084,-1.5826 -0.7103,-1.9895 -0.8455,-1.7047 -2.4115,-4.3007 -2.8918,-4.6033 -1.7233,-1.0857 -9.3141,-5.0793 -20.3141,-12.1708 -15.1965,-9.7969 -20.2761,-12.6128 -21.1497,-11.7242 -1.3232,1.3461 -32.3334,52.4785 -32.6444,53.827 -0.1132,0.4913 9.0191,6.9149 20.2941,14.2747 11.275,7.3598 20.6314,14.0251 20.7919,14.8117 0.1949,0.9548 -6.8684,5.2241 -21.2477,12.8432 -11.8468,6.2771 -21.5301,11.863 -21.5183,12.413 0.05,2.311 28.8087,56.0248 30.1367,56.2864 0.7997,0.1575 10.5949,-4.455 21.7672,-10.25 11.1723,-5.7951 20.9709,-10.5364 21.7746,-10.5364 1.262,0 1.363,3.3915 0.7404,24.8556 -0.5191,17.8955 -0.4089,25.0485 0.3933,25.5443 0.6128,0.3788 3.3101,0.9487 5.9939,1.2666 4.3494,0.5151 5.1669,1.021 7.5238,4.6558 3.8012,5.8623 3.6983,13.9462 -0.2846,22.3653 -2.588,5.4703 -18.2642,29.8904 -30.0507,46.8124 -3.2877,4.7201 -4.0747,6.6399 -3.6895,9 0.7152,4.3815 1.1257,5.8405 2.0678,7.3497 0.6785,1.087 0.4429,1.1359 -1.2104,0.2511 -1.1291,-0.6043 -2.3388,-1.9992 -2.6881,-3.0998 -0.83,-2.6151 -3.0046,-2.5469 -4.8961,0.1536 -2.0503,2.9272 -0.8164,4.8785 5.0754,8.0261 8.7295,4.6637 22.8765,8.091 40.3604,9.7781 12.8805,1.2429 42.5837,0.4486 52.9251,-1.4153 z m -1.2277,-126.4028 c 0.5706,-15.9493 0.4658,-21.559 -0.4166,-22.2905 -1.6142,-1.3382 -2.1027,3.3532 -2.8272,27.1498 -0.5341,17.5405 -0.4393,19.3469 0.9437,17.9768 1.2348,-1.2232 1.6876,-5.7187 2.3001,-22.8361 z m 80.3793,-115.9095 c -4.0778,-8.0781 -27.2326,-51.6413 -27.7177,-52.1479 -3.8764,-4.0479 8.4836,21.1712 25.3221,51.6667 4.339,7.8581 6.3204,8.2562 2.3956,0.4812 z m -99.5078,-19.9366 c 5.0844,-2.4176 9.5684,-5.1726 12.3143,-7.2448 0.8326,-0.6283 2.1857,-1.0887 2.8854,-1.3756 2.3138,-0.9484 4.1682,-2.303 4.5029,-3.3212 0.6811,-2.0717 0.9827,-6.603 1.1918,-14.853 0.2091,-8.25 0.5189,-19.275 0.6884,-24.5 l 0.3083,-9.5 -5.6757,-0.6101 c -3.1215,-0.3356 -18.0166,-0.9381 -33.1001,-1.339 l -27.4246,-0.7288 -0.6411,5.3389 c -0.3526,2.9364 -0.683,11.189 -0.7342,18.339 -0.051,7.15 -0.6718,15.631 -0.8273,18.8942 -0.1958,4.1126 -0.3522,6.239 0.1031,7.7192 0.3578,1.1634 0.8597,1.6203 1.9422,2.5507 0.5607,0.4819 1.2079,0.4769 1.5941,0.7899 3.5704,2.8931 10.8837,8.8632 17.1078,12.1395 8.2011,4.3169 12.2709,4.1174 25.7647,-2.2989 z m -51.6684,-16.696 c -1.7547,-2.6483 -33.3279,-21.5982 -34.8508,-21.5869 -0.8743,0.01 2.6853,2.7485 7.9103,6.0934 5.225,3.3449 13.55,8.6967 18.5,11.8929 8.275,5.3431 10.687,6.9913 8.4405,3.6006 z m 76.5475,-11.2759 c 1.5044,-27.8534 1.5197,-33.3227 0.093,-33.3227 -1.5617,0 -2.1156,5.6982 -3.061,31.4933 -0.4988,13.6088 -0.4092,14.7929 0.9708,12.8228 0.9635,-1.3757 1.6949,-5.4018 1.9969,-10.9934 z"
       inkscape:connector-curvature="0"
       sodipodi:nodetypes="ssssssssssssssssssscscssscssssssssscssssccsscsssssscsssccssssssssssssssssscssscssssssssscsscssssssssscsssccssccc" />
    <path
       sodipodi:nodetypes="ssssssssssssssssssscscssscssssssssscssssccsscsssssscsssccssssssssssssssssscssscssssssssscsscssssssssscsssccssccc"
       inkscape:connector-curvature="0"
       d="m 395.86684,641.65711 c 11.137,-2.0073 17.4327,-4.166 21.0659,-7.2231 3.5076,-2.9515 3.618,-3.6714 0.969,-6.3204 -2.6091,-2.6091 -3.4408,-2.5228 -4.8181,0.5 -0.6265,1.375 -1.5729,2.5 -2.1031,2.5 -1.0884,0 -0.6805,-3.1026 0.7423,-5.6449 1.5114,-2.7007 -0.1317,-6.437 -8.5953,-19.5453 -9.7262,-15.0635 -22.2566,-36.8072 -24.5382,-42.5801 -2.2702,-5.7443 -2.1571,-12.8834 0.2761,-17.4233 1.432,-2.6717 1.6351,-3.7973 0.75,-4.1562 -0.6675,-0.2708 1.1222,-0.5279 3.9773,-0.5713 2.855,-0.043 5.3988,-0.4164 5.6528,-0.8289 0.2541,-0.4125 0.7496,-10.425 1.1013,-22.25 0.7159,-24.0747 1.1155,-28.0001 2.8502,-28 0.6626,0 10.5801,6.075 22.0389,13.5 11.4589,7.425 21.204,13.5 21.656,13.5 0.4519,0 8.7901,-12.4204 18.5293,-27.6008 14.6574,-22.8463 17.4727,-27.8141 16.344,-28.8399 -0.7499,-0.6816 -10.4704,-7.0169 -21.601,-14.0785 -11.1306,-7.0616 -20.0349,-13.0418 -19.7874,-13.2893 0.2475,-0.2475 10.1555,5.7445 22.0178,13.3155 11.8623,7.571 21.8542,13.4792 22.2041,13.1292 0.8199,-0.8199 2.8039,0.5628 -20.7968,-14.494 -11.3299,-7.2282 -21.3424,-13.1422 -22.25,-13.1422 -4.0682,0 -0.2495,-2.4658 20.0998,-12.9783 11.9625,-6.1799 22.1353,-11.5957 22.6062,-12.0352 0.7103,-0.6628 -27.9765,-56.7439 -30.3335,-59.3004 -0.4127,-0.4476 -10.5447,4.4118 -22.5155,10.7985 -11.9708,6.3868 -21.1981,10.6826 -22.0039,10.9168 -1.1479,0.3335 -3.5598,2.2167 -5.8762,4.2815 -0.6797,0.6059 -0.9114,1.2168 -1.7536,2.0068 -3.7345,3.5031 -7.3545,5.8984 -12.1578,8.3857 -5.9584,3.0853 -9.3149,4.3065 -15.781,6.8172 -2.2498,0.8736 -2.499,1.3404 -2.7103,3.2224 -0.9276,8.2629 -2.0308,38.4469 -2.1247,60.885 l -0.0701,11.96404 c 0,0 2.66261,0.88505 3.982,1.36146 8.21422,2.966 11.5923,14.5757 6.8077,21.6745 -8.4071,12.4733 -27.4422,6.61641 -27.43412,-8.48629 0.003,-6.2084 2.93842,-10.29591 7.83902,-12.93511 1.58204,-0.852 2.26303,-1.03099 3.93851,-1.4155 l 0.25569,-33.0804 c -0.097,-12.7603 0.6072,-26.1725 0.8823,-38.7104 0.047,-2.1375 -0.2418,-3.5219 -1.7161,-4.6283 -2.1661,-1.6256 -6.2338,-3.7119 -6.2338,-3.7119 -4.4821,-2.4927 -7.3737,-4.4395 -10.2786,-6.7307 -2.644,-2.0853 -5.3602,-4.3655 -7.6559,-7.4832 -0.3053,-0.4147 -0.5084,-1.5826 -0.7103,-1.9895 -0.8455,-1.7047 -2.4115,-4.3007 -2.8918,-4.6033 -1.7233,-1.0857 -9.3141,-5.0793 -20.3141,-12.1708 -15.1965,-9.7969 -20.2761,-12.6128 -21.1497,-11.7242 -1.3232,1.3461 -32.3334,52.4785 -32.6444,53.827 -0.1132,0.4913 9.0191,6.9149 20.2941,14.2747 11.275,7.3598 20.6314,14.0251 20.7919,14.8117 0.1949,0.9548 -6.8684,5.2241 -21.2477,12.8432 -11.8468,6.2771 -21.5301,11.863 -21.5183,12.413 0.05,2.311 28.8087,56.0248 30.1367,56.2864 0.7997,0.1575 10.5949,-4.455 21.7672,-10.25 11.1723,-5.7951 20.9709,-10.5364 21.7746,-10.5364 1.262,0 1.363,3.3915 0.7404,24.8556 -0.5191,17.8955 -0.4089,25.0485 0.3933,25.5443 0.6128,0.3788 3.3101,0.9487 5.9939,1.2666 4.3494,0.5151 5.1669,1.021 7.5238,4.6558 3.8012,5.8623 3.6983,13.9462 -0.2846,22.3653 -2.588,5.4703 -18.2642,29.8904 -30.0507,46.8124 -3.2877,4.7201 -4.0747,6.6399 -3.6895,9 0.7152,4.3815 1.1257,5.8405 2.0678,7.3497 0.6785,1.087 0.4429,1.1359 -1.2104,0.2511 -1.1291,-0.6043 -2.3388,-1.9992 -2.6881,-3.0998 -0.83,-2.6151 -3.0046,-2.5469 -4.8961,0.1536 -2.0503,2.9272 -0.8164,4.8785 5.0754,8.0261 8.7295,4.6637 22.8765,8.091 40.3604,9.7781 12.8805,1.2429 42.5837,0.4486 52.9251,-1.4153 z m -1.2277,-126.4028 c 0.5706,-15.9493 0.4658,-21.559 -0.4166,-22.2905 -1.6142,-1.3382 -2.1027,3.3532 -2.8272,27.1498 -0.5341,17.5405 -0.4393,19.3469 0.9437,17.9768 1.2348,-1.2232 1.6876,-5.7187 2.3001,-22.8361 z m 80.3793,-115.9095 c -4.0778,-8.0781 -27.2326,-51.6413 -27.7177,-52.1479 -3.8764,-4.0479 8.4836,21.1712 25.3221,51.6667 4.339,7.8581 6.3204,8.2562 2.3956,0.4812 z m -99.5078,-19.9366 c 5.0844,-2.4176 9.5684,-5.1726 12.3143,-7.2448 0.8326,-0.6283 2.1857,-1.0887 2.8854,-1.3756 2.3138,-0.9484 4.1682,-2.303 4.5029,-3.3212 0.6811,-2.0717 0.9827,-6.603 1.1918,-14.853 0.2091,-8.25 0.5189,-19.275 0.6884,-24.5 l 0.3083,-9.5 -5.6757,-0.6101 c -3.1215,-0.3356 -18.0166,-0.9381 -33.1001,-1.339 l -27.4246,-0.7288 -0.6411,5.3389 c -0.3526,2.9364 -0.683,11.189 -0.7342,18.339 -0.051,7.15 -0.6718,15.631 -0.8273,18.8942 -0.1958,4.1126 -0.3522,6.239 0.1031,7.7192 0.3578,1.1634 0.8597,1.6203 1.9422,2.5507 0.5607,0.4819 1.2079,0.4769 1.5941,0.7899 3.5704,2.8931 10.8837,8.8632 17.1078,12.1395 8.2011,4.3169 12.2709,4.1174 25.7647,-2.2989 z m -51.6684,-16.696 c -1.7547,-2.6483 -33.3279,-21.5982 -34.8508,-21.5869 -0.8743,0.01 2.6853,2.7485 7.9103,6.0934 5.225,3.3449 13.55,8.6967 18.5,11.8929 8.275,5.3431 10.687,6.9913 8.4405,3.6006 z m 76.5475,-11.2759 c 1.5044,-27.8534 1.5197,-33.3227 0.093,-33.3227 -1.5617,0 -2.1156,5.6982 -3.061,31.4933 -0.4988,13.6088 -0.4092,14.7929 0.9708,12.8228 0.9635,-1.3757 1.6949,-5.4018 1.9969,-10.9934 z"
       style="font-size:medium;font-style:normal;font-variant:normal;font-weight:normal;font-stretch:normal;text-indent:0;text-align:start;text-decoration:none;line-height:normal;letter-spacing:normal;word-spacing:normal;text-transform:none;direction:ltr;block-progression:tb;writing-mode:lr-tb;text-anchor:start;baseline-shift:baseline;color:#000000;fill:url(#radialGradient5102);fill-opacity:1;stroke:#004500;stroke-width:2;stroke-linecap:round;stroke-linejoin:round;stroke-miterlimit:4;stroke-opacity:1;stroke-dasharray:none;marker:none;visibility:visible;display:inline;overflow:visible;enable-background:accumulate;font-family:Sans;-inkscape-font-specification:Sans"
       id="path3090" />
    <path
       sodipodi:nodetypes="sssssscccccsssscscc"
       inkscape:connector-curvature="0"
       id="path4385"
       d="m 354.97155,474.84518 c -2.20566,-0.0645 -4.4972,0.62985 -5.71875,2 -1.88785,2.1175 -2.83502,5.22453 -2.21875,7.90625 0.77447,3.37014 3.53507,6.22793 6.75,7.09375 4.94687,1.33226 10.1636,-2.51132 10.03125,-7.78125 -0.14615,-5.81961 -3.83319,-9.07229 -8.84375,-9.21875 z m -0.875,7.28125 c 0.23629,-0.0467 0.48901,-0.0196 0.71875,0.0312 0.28579,0.0632 0.63442,0.22817 0.9375,0.53125 0.39483,0.39481 0.57653,0.79446 0.59375,1.09375 0.008,0.13044 -0.0134,0.34484 -0.0937,0.53125 -0.0804,0.18641 -0.21165,0.35197 -0.375,0.53125 -0.25581,0.28076 -0.56383,0.50135 -0.9375,0.59375 -0.37367,0.0924 -0.74387,0.018 -1.0625,-0.125 -0.36619,-0.16434 -0.62013,-0.34073 -0.78125,-0.5625 -0.12885,-0.17735 -0.24018,-0.4972 -0.25,-0.84375 -0.0176,-0.62172 0.24669,-1.17498 0.59375,-1.46875 0.1965,-0.16633 0.41996,-0.26584 0.65625,-0.3125 z"
       style="fill:url(#linearGradient5099);fill-opacity:1;stroke:none" />
    <path
       style="fill:url(#linearGradient5094);fill-opacity:1;stroke:url(#linearGradient5096);stroke-width:1.20000005;stroke-linecap:round;stroke-linejoin:round;stroke-miterlimit:4;stroke-opacity:1;stroke-dasharray:none"
       d="m 331.59877,371.5349 c -0.62883,0.39778 -0.13221,1.35223 0.52589,2.05492 3.52178,3.76038 9.90852,9.03531 16.2721,12.37814 2.96527,1.55768 5.58216,3.28755 6.82831,4.26202 1.53962,1.20397 1.42482,3.2738 1.41238,5.39645 -0.0447,7.62587 -0.0653,15.07127 -0.36432,23 -0.14153,3.39924 -0.10887,14.76938 -0.44129,25.11585 -0.28844,8.9775 -0.47151,18.62661 -0.54794,27.36232 0.064,2.63355 1.94514,2.39404 2.15615,0.84375 0.24919,-1.83074 0.0652,-3.89316 0.0624,-5.32192 -0.0135,-6.88647 0.0836,-22.96607 0.51608,-38.50693 0.43252,-15.54086 0.95546,-30.59623 1.25,-34.29642 0.17158,-2.1554 0.66418,-3.01559 1.5038,-3.4694 1.28765,-0.69595 2.88229,-1.12619 4.11048,-1.59911 9.20621,-3.54487 16.47933,-6.71671 23.53661,-12.31943 1.03735,-0.82354 2.45928,-1.76483 2.03125,-2.56028 -0.6961,-1.29365 -4.39468,1.7556 -5.60447,2.48392 -3.65409,2.19983 -9.26724,5.06382 -13.55113,6.93907 -5.08658,2.22663 -9.07113,3.41777 -12.57387,3.31092 -3.50274,-0.10685 -6.92138,-1.54983 -11.02968,-4.05177 -6.26211,-3.8136 -8.73659,-5.42116 -12.55871,-8.82545 -1.24903,-1.11248 -2.88359,-2.6081 -3.53404,-2.19665 z"
       id="path3837"
       inkscape:connector-curvature="0"
       sodipodi:nodetypes="ssssscscssssssssssssss" />
    <path
       style="fill:url(#radialGradient5091);fill-opacity:1;stroke:#363636;stroke-width:1.5;stroke-linecap:round;stroke-linejoin:round;stroke-miterlimit:4;stroke-opacity:1"
       d="m 354.97155,474.84518 c -2.20566,-0.0645 -4.4972,0.62985 -5.71875,2 -1.88785,2.1175 -2.83502,5.22453 -2.21875,7.90625 0.77447,3.37014 3.53507,6.22793 6.75,7.09375 4.94687,1.33226 10.1636,-2.51132 10.03125,-7.78125 -0.14615,-5.81961 -3.83319,-9.07229 -8.84375,-9.21875 z m -0.875,7.28125 c 0.23629,-0.0467 0.48901,-0.0196 0.71875,0.0312 0.28579,0.0632 0.63442,0.22817 0.9375,0.53125 0.39483,0.39481 0.57653,0.79446 0.59375,1.09375 0.008,0.13044 -0.0134,0.34484 -0.0937,0.53125 -0.0804,0.18641 -0.21165,0.35197 -0.375,0.53125 -0.25581,0.28076 -0.56383,0.50135 -0.9375,0.59375 -0.37367,0.0924 -0.74387,0.018 -1.0625,-0.125 -0.36619,-0.16434 -0.62013,-0.34073 -0.78125,-0.5625 -0.12885,-0.17735 -0.24018,-0.4972 -0.25,-0.84375 -0.0176,-0.62172 0.24669,-1.17498 0.59375,-1.46875 0.1965,-0.16633 0.41996,-0.26584 0.65625,-0.3125 z"
       id="path3857"
       inkscape:connector-curvature="0"
       sodipodi:nodetypes="sssssscccccsssscscc" />
    <path
       sodipodi:nodetypes="sssssssscssssssssssss"
       inkscape:connector-curvature="0"
       id="path4389"
       d="m 358.71875,469.26562 c -0.2738,0.23517 -0.32183,1.6292 -0.30459,2.10937 0.0617,1.71832 0.23009,1.78126 2.13281,3.14845 1.89243,1.35979 3.37519,3.44074 4.20313,5.97656 0.59438,1.8205 0.65398,4.42619 0.15625,6.09375 -1.35519,4.54032 -5.49892,7.31699 -9.71339,6.90403 -2.63764,-0.25846 -4.51142,-1.02693 -6.56786,-3.12278 -2.83315,-2.88745 -3.89099,-6.54987 -2.90625,-10.125 0.46657,-1.69389 1.68747,-3.67368 2.51137,-4.57701 1.5941,-1.43659 3.07529,-2.06595 4.9075,-2.71307 1.16586,-0.41176 1.25996,-2.92407 0.75753,-3.56694 -0.65817,-0.84214 -2.84679,0.39697 -3.7389,0.94855 -2.3743,1.468 -4.92925,3.84643 -6.1875,8.08035 -0.55915,1.88151 -0.57374,5.34682 0.27903,7.83256 0.88687,2.58515 2.64768,5.30973 4.85956,6.78034 2.33425,1.55197 5.02123,2.73861 7.78581,2.74843 2.8525,0.0101 6.33774,-1.17599 8.41735,-2.69363 2.51427,-1.83485 3.77035,-4.48483 4.42878,-6.60436 1.09595,-3.52796 1.02488,-6.50899 -0.49913,-9.93957 -1.59716,-3.59523 -3.47578,-5.30849 -6.05232,-6.48315 -1.4115,-0.64351 -4.06488,-1.14412 -4.46918,-0.79688 z"
       style="fill:url(#linearGradient5088);fill-opacity:1;stroke:none" />
    <path
       style="fill:url(#radialGradient5085);fill-opacity:1;stroke:#363636;stroke-width:1.5;stroke-linecap:round;stroke-linejoin:round;stroke-miterlimit:4;stroke-opacity:1"
       d="m 358.71875,469.26562 c -0.2738,0.23517 -0.32183,1.6292 -0.30459,2.10937 0.0617,1.71832 0.23009,1.78126 2.13281,3.14845 1.89243,1.35979 3.37519,3.44074 4.20313,5.97656 0.59438,1.8205 0.65398,4.42619 0.15625,6.09375 -1.35519,4.54032 -5.49892,7.31699 -9.71339,6.90403 -2.63764,-0.25846 -4.51142,-1.02693 -6.56786,-3.12278 -2.83315,-2.88745 -3.89099,-6.54987 -2.90625,-10.125 0.46657,-1.69389 1.68747,-3.67368 2.51137,-4.57701 1.5941,-1.43659 3.07529,-2.06595 4.9075,-2.71307 1.16586,-0.41176 1.25996,-2.92407 0.75753,-3.56694 -0.65817,-0.84214 -2.84679,0.39697 -3.7389,0.94855 -2.3743,1.468 -4.92925,3.84643 -6.1875,8.08035 -0.55915,1.88151 -0.57374,5.34682 0.27903,7.83256 0.88687,2.58515 2.64768,5.30973 4.85956,6.78034 2.33425,1.55197 5.02123,2.73861 7.78581,2.74843 2.8525,0.0101 6.33774,-1.17599 8.41735,-2.69363 2.51427,-1.83485 3.77035,-4.48483 4.42878,-6.60436 1.09595,-3.52796 1.02488,-6.50899 -0.49913,-9.93957 -1.59716,-3.59523 -3.47578,-5.30849 -6.05232,-6.48315 -1.4115,-0.64351 -4.06488,-1.14412 -4.46918,-0.79688 z"
       id="path3867"
       inkscape:connector-curvature="0"
       sodipodi:nodetypes="sssssssscssssssssssss" />
    <path
       id="path2991"
       style="font-size:medium;font-style:normal;font-variant:normal;font-weight:normal;font-stretch:normal;text-indent:0;text-align:start;text-decoration:none;line-height:normal;letter-spacing:normal;word-spacing:normal;text-transform:none;direction:ltr;block-progression:tb;writing-mode:lr-tb;text-anchor:start;baseline-shift:baseline;color:#000000;fill:#000000;fill-opacity:1;stroke:none;stroke-width:0.89999998;marker:none;visibility:visible;display:inline;overflow:visible;enable-background:accumulate;font-family:Sans;-inkscape-font-specification:Sans"
       d="m 352.81804,483.87061 c 0.032,1.0529 0.8012,1.4844 1.6489,1.6047 0.8477,0.1203 1.81,-0.6212 1.8732,-1.5827 0.063,-0.9615 -0.9277,-1.8522 -1.8236,-1.8235 -0.8958,0.029 -1.7305,0.7485 -1.6985,1.8015 z m -8.5908,161.1753 c -26.9233,-2.072 -48.2846,-8.9167 -49.8333,-15.9679 -0.7605,-3.4626 1.2931,-7.4441 4.3381,-8.4106 1.036,-0.3288 2.5469,-2.2864 3.3576,-4.3502 0.8107,-2.0639 4.4102,-7.8107 7.9988,-12.7707 11.7265,-16.2075 26.0781,-39.6098 27.9197,-45.5272 3.104,-9.9731 -0.8924,-16.9912 -10.6064,-18.6258 l -5,-0.8414 0.3846,-24.8475 c 0.2651,-17.1264 0.057,-24.7299 -0.6684,-24.4692 -0.5792,0.208 -10.2128,5.0779 -21.408,10.8221 -12.1924,6.2559 -20.9885,10.2009 -21.9349,9.8377 -2.2621,-0.8681 -31.0926,-57.2221 -30.694,-59.9967 0.2547,-1.7734 4.1282,-4.2519 18.8207,-12.0426 10.175,-5.3954 19.566,-10.3976 20.8688,-11.1162 2.2709,-1.2526 1.5133,-1.8601 -18.3231,-14.6935 -17.4222,-11.2714 -20.629,-13.7167 -20.2931,-15.474 0.2195,-1.1479 7.9424,-14.5457 17.162,-29.7729 l 16.7629,-27.6857 4.5686,0 c 4.0665,0 6.1939,1.0441 19.3561,9.5 8.1332,5.225 15.0075,9.5 15.2763,9.5 0.2687,0 0.631,-1.2375 0.8051,-2.75 0.189,-1.6431 1.1719,-3.1258 2.4416,-3.6834 2.0042,-0.8803 2.175,-1.9625 3,-19 l 0.8748,-18.0666 30.5,0.226 c 16.775,0.1243 33.3744,0.5043 36.8877,0.8443 l 6.3877,0.6183 -0.4957,18.9057 -0.4957,18.9057 2.858,0 c 3.7944,0 3.704,2.0644 -0.3091,7.0582 -1.7419,2.1675 -3.8935,5.0013 -2.7225,4.3855 0.3061,-0.1609 9.2072,-4.2081 19.9171,-9.8947 21.4745,-11.4022 24.7604,-12.5935 27.1322,-9.8369 3.2482,3.7751 30.9232,57.7086 30.6377,59.707 -0.2286,1.5992 -5.1972,4.627 -21.4654,13.0809 -11.6424,6.05 -21.4444,11.277 -21.7823,11.6155 -0.3378,0.3386 8.8455,6.6386 20.4075,14 15.8889,10.1165 21.0242,13.8745 21.0322,15.3914 0.012,2.1957 -34.1177,56.1049 -36.8207,58.1604 -3.4852,2.6504 -6.7071,1.2798 -25.1687,-10.7066 l -18.5,-12.0113 -0.6185,11.2753 c -0.3401,6.2014 -0.6776,16.0821 -0.75,21.9572 -0.1291,10.4878 -0.1823,10.718 -2.9253,12.6712 -1.5366,1.0942 -4.3347,2.1373 -6.2181,2.3181 -2.5874,0.2484 -3.9819,1.1591 -5.7062,3.7266 -2.648,3.9431 -2.8851,8.141 -0.7945,14.0665 1.7418,4.9367 16.1792,29.8374 26.3226,45.3992 3.8945,5.9749 7.3521,12.0979 7.6834,13.6067 0.3314,1.5087 1.6763,3.3178 2.9886,4.0201 3.3248,1.7794 5.1189,6.3952 3.6979,9.514 -4.0681,8.9286 -39.9673,14.2667 -76.8544,11.428 z m 51.6396,-3.3888 c 11.137,-2.0073 17.4327,-4.166 21.0659,-7.2231 3.5076,-2.9515 3.618,-3.6714 0.969,-6.3204 -2.6091,-2.6091 -3.4408,-2.5228 -4.8181,0.5 -0.6265,1.375 -1.5729,2.5 -2.1031,2.5 -1.0884,0 -0.6805,-3.1026 0.7423,-5.6449 1.5114,-2.7007 -0.1317,-6.437 -8.5953,-19.5453 -9.7262,-15.0635 -22.2566,-36.8072 -24.5382,-42.5801 -2.2702,-5.7443 -2.1571,-12.8834 0.2761,-17.4233 1.432,-2.6717 1.6351,-3.7973 0.75,-4.1562 -0.6675,-0.2708 1.1222,-0.5279 3.9773,-0.5713 2.855,-0.043 5.3988,-0.4164 5.6528,-0.8289 0.2541,-0.4125 0.7496,-10.425 1.1013,-22.25 0.7159,-24.0747 1.1155,-28.0001 2.8502,-28 0.6626,0 10.5801,6.075 22.0389,13.5 11.4589,7.425 21.204,13.5 21.656,13.5 0.4519,0 8.7901,-12.4204 18.5293,-27.6008 14.6574,-22.8463 17.4727,-27.8141 16.344,-28.8399 -0.7499,-0.6816 -10.4704,-7.0169 -21.601,-14.0785 -11.1306,-7.0616 -20.0349,-12.68825 -19.7874,-13.2893 0.13327,-0.32365 10.1555,5.7445 22.0178,13.3155 11.8623,7.571 21.8542,13.4792 22.2041,13.1292 0.8199,-0.8199 2.8039,0.5628 -20.7968,-14.494 -11.3299,-7.2282 -21.3424,-13.1422 -22.25,-13.1422 -4.0682,0 -0.2495,-2.4658 20.0998,-12.9783 11.9625,-6.1799 22.1353,-11.5957 22.6062,-12.0352 0.7103,-0.6628 -27.9765,-56.7439 -30.3335,-59.3004 -0.4127,-0.4476 -10.5447,4.4118 -22.5155,10.7985 -11.9708,6.3868 -21.1981,10.6826 -22.0039,10.9168 -1.1479,0.3335 -3.5598,2.2167 -5.8762,4.2815 -0.6797,0.6059 -0.9114,1.2168 -1.7536,2.0068 -3.7345,3.5031 -7.3545,5.8984 -12.1578,8.3857 -5.9584,3.0853 -9.3149,4.3065 -15.781,6.8172 -2.2498,0.8736 -2.499,1.3404 -2.7103,3.2224 -0.9276,8.2629 -2.0308,38.4469 -2.1247,60.885 l -0.0701,11.96404 c 0,0 2.66261,0.88505 3.982,1.36146 8.21422,2.966 11.5923,14.5757 6.8077,21.6745 -8.4071,12.4733 -27.4422,6.61641 -27.43412,-8.48629 0.003,-6.2084 2.93842,-10.29591 7.83902,-12.93511 1.58204,-0.852 2.26303,-1.03099 3.93851,-1.4155 l 0.25569,-33.0804 c -0.097,-12.7603 0.6072,-26.1725 0.8823,-38.7104 0.047,-2.1375 -0.2418,-3.5219 -1.7161,-4.6283 -2.1661,-1.6256 -6.2338,-3.7119 -6.2338,-3.7119 -4.4821,-2.4927 -7.3737,-4.4395 -10.2786,-6.7307 -2.644,-2.0853 -5.3602,-4.3655 -7.6559,-7.4832 -0.3053,-0.4147 -0.5084,-1.5826 -0.7103,-1.9895 -0.8455,-1.7047 -2.4115,-4.3007 -2.8918,-4.6033 -1.7233,-1.0857 -9.3141,-5.0793 -20.3141,-12.1708 -15.1965,-9.7969 -20.2761,-12.6128 -21.1497,-11.7242 -1.3232,1.3461 -32.3334,52.4785 -32.6444,53.827 -0.1132,0.4913 9.0191,6.9149 20.2941,14.2747 11.275,7.3598 20.6314,14.0251 20.7919,14.8117 0.1949,0.9548 -6.8684,5.2241 -21.2477,12.8432 -11.8468,6.2771 -21.5301,11.863 -21.5183,12.413 0.05,2.311 28.8087,56.0248 30.1367,56.2864 0.7997,0.1575 10.5949,-4.455 21.7672,-10.25 11.1723,-5.7951 20.9709,-10.5364 21.7746,-10.5364 1.262,0 1.363,3.3915 0.7404,24.8556 -0.5191,17.8955 -0.4089,25.0485 0.3933,25.5443 0.6128,0.3788 3.3101,0.9487 5.9939,1.2666 4.3494,0.5151 5.1669,1.021 7.5238,4.6558 3.8012,5.8623 3.6983,13.9462 -0.2846,22.3653 -2.588,5.4703 -18.2642,29.8904 -30.0507,46.8124 -3.2877,4.7201 -4.0747,6.6399 -3.6895,9 0.7152,4.3815 1.1257,5.8405 2.0678,7.3497 0.6785,1.087 0.4429,1.1359 -1.2104,0.2511 -1.1291,-0.6043 -2.3388,-1.9992 -2.6881,-3.0998 -0.83,-2.6151 -3.0046,-2.5469 -4.8961,0.1536 -2.0503,2.9272 -0.8164,4.8785 5.0754,8.0261 8.7295,4.6637 22.8765,8.091 40.3604,9.7781 12.8805,1.2429 42.5837,0.4486 52.9251,-1.4153 z m -1.2277,-126.4028 c 0.5706,-15.9493 0.4658,-21.559 -0.4166,-22.2905 -1.6142,-1.3382 -2.1027,3.3532 -2.8272,27.1498 -0.5341,17.5405 -0.4393,19.3469 0.9437,17.9768 1.2348,-1.2232 1.6876,-5.7187 2.3001,-22.8361 z M 358.3073,495.57172 c 4.98145,-0.69457 8.35112,-2.81545 10.416,-6.42474 3.33051,-5.82153 2.45868,-17.28284 -7.88256,-19.73247 -2.10496,-0.49862 -2.41982,-0.47717 -2.373,1.7406 0.0344,1.63098 0.3574,2.1741 2.0718,3.3219 2.0813,1.3936 4.7539,5.404 4.7071,9.554 -0.053,4.7345 -3.97109,9.13603 -8.45029,9.41623 -4.1923,0.2622 -6.45601,-1.39463 -8.43351,-3.38563 -1.9774,-1.9911 -3.2502,-5.5129 -2.9775,-7.9506 0.2727,-2.4376 1.45593,-5.35796 2.89833,-6.49256 1.4424,-1.1346 3.39437,-2.28354 4.53337,-2.50484 1.2791,-0.2486 1.08908,-1.44178 1.18388,-2.45226 0.0948,-1.01062 0.14127,-1.07092 -0.26425,-1.314 -0.40553,-0.24309 -0.94172,0.0119 -2.11673,0.50376 -4.18548,1.75203 -7.8835,5.25551 -7.9988,10.88122 -0.11082,5.40752 1.8858,8.98866 3.91225,10.92678 1.65278,1.58074 6.31306,4.5346 10.77391,3.91261 z m 3.09844,-5.76691 c 4.0503,-3.785 2.4811,-10.0625 -0.1771,-12.6005 -3.9429,-3.7647 -10.6272,-2.7284 -12.7223,0.4505 -2.9435,4.4664 -1.6731,9.1929 1.2725,11.9923 3.0253,2.875 7.8176,3.7174 11.6269,0.1577 z m -15.554,-105.0328 c 1.534,0.8046 2.9069,1.4828 5.0717,2.6528 0,0 4.6438,2.4426 5.4205,4.2748 0.9064,2.1381 -0.2587,35.7731 -0.2587,35.7731 -0.15,11.2338 -1.10062,36.26132 -0.79703,44.46354 0.0697,1.88454 2.29494,1.86897 2.31488,0.0128 0.0619,-5.76006 0.0974,-34.35833 0.53236,-44.19745 0.69763,-15.78156 0.8395,-32.53057 1.33169,-35.38283 0.3853,-0.9324 0.9634,-1.9004 2.4286,-2.4371 0.5406,-0.1979 9.9966,-3.4321 16.5757,-6.9508 4.8026,-2.5685 9.6103,-6.0418 11.5717,-8.0525 0.9444,-0.9682 0.4125,-1.7859 -1.2934,-1.0275 -1.0869,0.4832 -4.9246,3.405 -12.3816,6.9687 -7.1541,3.419 -12.0774,5.5276 -16.7937,5.6458 -3.0905,0.077 -5.8173,-0.8523 -8.2058,-1.9364 -2.3375,-1.0611 -7.238,-4.2956 -10.4588,-6.3535 -3.1211,-1.9943 -5.2939,-4.162 -7.8367,-6.1697 -1.582,-1.249 -2.3726,-0.4404 -1.1626,1.1717 1.0547,1.4054 3.0619,3.6406 5.8009,5.8281 2.8688,2.2913 6.7441,4.9839 8.1406,5.7164 z m 129.1667,14.5728 c -4.0778,-8.0781 -27.2326,-51.6413 -27.7177,-52.1479 -3.8764,-4.0479 8.4836,21.1712 25.3221,51.6667 4.339,7.8581 6.3204,8.2562 2.3956,0.4812 z m -99.5078,-19.9366 c 5.0844,-2.4176 9.5684,-5.1726 12.3143,-7.2448 0.8326,-0.6283 2.1857,-1.0887 2.8854,-1.3756 2.3138,-0.9484 4.1682,-2.303 4.5029,-3.3212 0.6811,-2.0717 0.9827,-6.603 1.1918,-14.853 0.2091,-8.25 0.5189,-19.275 0.6884,-24.5 l 0.3083,-9.5 -5.6757,-0.6101 c -3.1215,-0.3356 -18.0166,-0.9381 -33.1001,-1.339 l -27.4246,-0.7288 -0.6411,5.3389 c -0.3526,2.9364 -0.683,11.189 -0.7342,18.339 -0.051,7.15 -0.6718,15.631 -0.8273,18.8942 -0.1958,4.1126 -0.3522,6.239 0.1031,7.7192 0.3578,1.1634 0.8597,1.6203 1.9422,2.5507 0.5607,0.4819 1.2079,0.4769 1.5941,0.7899 3.5704,2.8931 10.8837,8.8632 17.1078,12.1395 8.2011,4.3169 12.2709,4.1174 25.7647,-2.2989 z m -51.6684,-16.696 c -1.7547,-2.6483 -33.3279,-21.5982 -34.8508,-21.5869 -0.8743,0.01 2.6853,2.7485 7.9103,6.0934 5.225,3.3449 13.55,8.6967 18.5,11.8929 8.275,5.3431 10.687,6.9913 8.4405,3.6006 z m 76.5475,-11.2759 c 1.5044,-27.8534 1.5197,-33.3227 0.093,-33.3227 -1.5617,0 -2.1156,5.6982 -3.061,31.4933 -0.4988,13.6088 -0.4092,14.7929 0.9708,12.8228 0.9635,-1.3757 1.6949,-5.4018 1.9969,-10.9934 z"
       inkscape:connector-curvature="0"
       sodipodi:nodetypes="zzzzzssssssscsssssssssscsssssscsscccssssssssscsscsssssssssssssssssssssssssssssssscssscssssssssscssssccsscsssssscsssccssssssssssssssssscssscsssssssssscszsssscssscsscsssscssssssssssccsssssssssscsscssssssssscsssccssccc" />
  </g>
  <g
     inkscape:groupmode="layer"
     id="layer3"
     inkscape:label="Small icon"
     style="display:none">
    <path
       sodipodi:nodetypes="ssssssssscscssscssssssssscssssccsscsssssscsssccsssssscssscssssssssscsscssssssssscsssccssccc"
       inkscape:connector-curvature="0"
       d="m 235.83404,367.23464 c 4.21447,-0.075 7.96992,-0.6147 8.34489,-1.22365 0.37511,-0.60895 1.10658,-15.3898 1.62578,-32.84632 1.05684,-35.54003 1.64675,-41.33486 4.20758,-41.33471 0.97815,0 15.61876,8.96815 32.53469,19.92923 16.91608,10.96108 31.30218,19.92923 31.96944,19.92923 0.66711,0 12.97629,-18.33548 27.35368,-40.74539 21.63784,-33.7266 25.79389,-41.06027 24.12766,-42.57459 -1.10704,-1.0062 -15.45682,-10.35863 -31.88825,-20.78323 -16.43143,-10.42462 -29.5763,-19.25282 -29.21094,-19.61819 0.36537,-0.36537 14.99195,8.48026 32.50354,19.65686 17.5116,11.17661 32.26203,19.89853 32.77858,19.38184 1.21036,-1.21037 4.13922,0.83083 -30.70106,-21.39661 -16.72564,-10.67055 -31.50649,-19.40104 -32.84633,-19.40104 -6.00563,0 -0.36832,-3.6401 29.67212,-19.15907 17.65951,-9.12301 32.677,-17.11803 33.37216,-17.76683 1.04857,-0.97846 -41.30001,-83.767581 -44.77951,-87.541587 -0.60924,-0.660765 -15.5665,6.512874 -33.23827,15.94117 -17.67176,9.428437 -31.29347,15.770077 -32.48302,16.115817 -1.69457,0.49232 -5.25511,3.27237 -8.67467,6.32051 -1.0034,0.89445 -1.34545,1.79629 -2.58874,2.96252 -5.51302,5.17142 -10.857,8.70745 -17.94783,12.3793 -8.79602,4.55464 -13.75102,6.35742 -23.29653,10.06382 -3.32124,1.28964 -3.68912,1.97874 -4.00105,4.75703 -1.36936,12.19802 -2.99795,56.75682 -3.13657,89.88083 l -0.10353,17.66179 c 0,0 3.93065,1.30655 5.87839,2.00984 12.12616,4.37853 17.11301,21.51723 10.0498,31.99675 -12.4109,18.41358 -40.51126,9.76741 -40.49933,-12.52779 0.004,-9.16509 4.33781,-15.19923 11.57227,-19.09532 2.33547,-1.25776 3.34077,-1.52199 5.81418,-2.08962 l 0.37746,-48.83459 c -0.1432,-18.83726 0.89637,-38.63688 1.30248,-57.14582 0.0694,-3.15546 -0.35695,-5.19916 -2.53337,-6.83247 -3.19768,-2.39978 -9.20258,-5.47965 -9.20258,-5.47965 -6.61665,-3.67983 -10.88535,-6.55377 -15.17368,-9.93613 -3.90317,-3.0784 -7.91293,-6.44453 -11.30193,-11.04699 -0.4507,-0.6122 -0.75052,-2.3363 -1.04857,-2.93699 -1.24817,-2.51654 -3.55996,-6.34886 -4.269,-6.79556 -2.544,-1.60275 -13.74984,-7.49826 -29.98847,-17.967013 C 97.971832,76.679443 90.473134,72.522501 89.183494,73.834287 87.23013,75.821453 41.45165,151.30511 40.99254,153.29582 c -0.16711,0.72528 13.31435,10.20804 29.95895,21.07287 16.644604,10.86483 30.45689,20.70441 30.69382,21.86562 0.28772,1.40951 -10.139396,7.71202 -31.36669,18.95963 -17.488712,9.26651 -31.783582,17.51263 -31.766162,18.32456 0.07381,3.41159 42.528537,82.70602 44.488984,83.09221 1.180548,0.2325 15.640612,-6.57665 32.133598,-15.13145 16.49299,-8.55496 30.95807,-15.55426 32.14452,-15.55426 1.86302,0 2.01212,5.00667 1.09301,36.69282 -0.76631,26.41804 -0.60364,36.97758 0.58061,37.7095 0.90464,0.5592 4.9164,1.19426 8.84843,1.86981 18.71794,3.21581 51.97157,5.50132 78.03238,5.03751 z m 16.30713,-38.29099 c 0.84234,-23.54498 0.68764,-31.82624 -0.615,-32.90611 -2.38295,-1.97551 -3.10409,4.95012 -4.17363,40.0796 -0.78845,25.89398 -0.64851,28.56066 1.39313,26.53806 1.82286,-1.80573 2.4913,-8.44217 3.3955,-33.71155 z M 370.80026,157.83348 c -6.01981,-11.92521 -40.20184,-76.234912 -40.91796,-76.982775 -5.7225,-5.975669 12.52383,31.253755 37.38148,76.272415 6.4054,11.60044 9.33042,12.18812 3.53648,0.71036 z M 223.90292,128.4023 c 7.5058,-3.56896 14.12525,-7.63601 18.17886,-10.69507 1.22912,-0.92752 3.22662,-1.60718 4.25954,-2.03071 3.41573,-1.40007 6.15327,-3.39977 6.64736,-4.90289 1.00546,-3.05833 1.4507,-9.7476 1.75938,-21.926581 0.30869,-12.178973 0.76603,-28.454512 1.01624,-36.167863 l 0.45513,-14.024274 -8.37869,-0.900654 c -4.60809,-0.495426 -26.59681,-1.38486 -48.86367,-1.976684 l -40.48528,-1.075884 -0.94642,7.881495 c -0.52052,4.33483 -1.00827,16.517643 -1.08385,27.072754 -0.0753,10.555112 -0.99173,23.075103 -1.2213,27.892364 -0.28904,6.071177 -0.51993,9.210257 0.15221,11.395387 0.5282,1.71745 1.26912,2.39194 2.86715,3.76544 0.82773,0.7114 1.78315,0.70402 2.35327,1.16609 5.27077,4.27091 16.06695,13.0842 25.25521,17.9208 12.10679,6.37278 18.11479,6.07827 38.03486,-3.39372 z M 147.628,103.75501 C 145.03764,99.845478 98.42804,71.870888 96.179875,71.88757 c -1.290672,0.01476 3.964145,4.057444 11.677495,8.995318 7.71335,4.937873 20.00304,12.83841 27.31043,17.556765 12.21588,7.887697 15.77657,10.320837 12.4602,5.315357 z M 260.63043,87.109075 c 2.22086,-41.118287 2.24345,-49.192283 0.13729,-49.192283 -2.30544,0 -3.12313,8.411907 -4.51877,46.49165 -0.73634,20.089838 -0.60407,21.837868 1.43314,18.929518 1.42235,-2.03086 2.50207,-7.974347 2.9479,-16.228885 z"
       style="font-size:medium;font-style:normal;font-variant:normal;font-weight:normal;font-stretch:normal;text-indent:0;text-align:start;text-decoration:none;line-height:normal;letter-spacing:normal;word-spacing:normal;text-transform:none;direction:ltr;block-progression:tb;writing-mode:lr-tb;text-anchor:start;baseline-shift:baseline;color:#000000;fill:#006a00;fill-opacity:1;stroke:none;stroke-width:2;marker:none;visibility:visible;display:inline;overflow:visible;enable-background:accumulate;font-family:Sans;-inkscape-font-specification:Sans"
       id="path3117" />
    <path
       id="path3119"
       style="font-size:medium;font-style:normal;font-variant:normal;font-weight:normal;font-stretch:normal;text-indent:0;text-align:start;text-decoration:none;line-height:normal;letter-spacing:normal;word-spacing:normal;text-transform:none;direction:ltr;block-progression:tb;writing-mode:lr-tb;text-anchor:start;baseline-shift:baseline;color:#000000;fill:url(#radialGradient3082);fill-opacity:1;stroke:#004500;stroke-width:2.95247889;stroke-linecap:round;stroke-linejoin:round;stroke-miterlimit:4;stroke-opacity:1;stroke-dasharray:none;marker:none;visibility:visible;display:inline;overflow:visible;enable-background:accumulate;font-family:Sans;-inkscape-font-specification:Sans"
       d="m 217.13776,367.24764 c 2.89736,0.0474 14.48147,0.0511 18.69628,-0.0133 4.21467,-0.0634 7.96992,-0.6147 8.34489,-1.22365 0.37511,-0.60895 1.10658,-15.38979 1.62578,-32.84633 1.05684,-35.54001 1.64675,-41.33485 4.20758,-41.3347 0.97815,0 15.61876,8.96816 32.53469,19.92924 16.91608,10.96107 31.30218,19.92922 31.96944,19.92922 0.66711,0 12.97629,-18.33548 27.35368,-40.74538 21.63784,-33.72661 25.79389,-41.06027 24.12766,-42.5746 -1.10704,-1.00621 -15.45682,-10.35862 -31.88825,-20.78324 -16.43143,-10.42461 -29.5763,-19.25282 -29.21094,-19.61819 0.36537,-0.36537 14.99195,8.48026 32.50354,19.65687 17.5116,11.17661 32.26203,19.89853 32.77858,19.38184 1.21036,-1.21036 4.13922,0.83083 -30.70106,-21.39661 -16.72564,-10.67056 -31.50649,-19.40103 -32.84633,-19.40103 -6.00563,0 -0.36832,-3.64011 29.67212,-19.15908 17.65951,-9.12301 32.677,-17.11803 33.37216,-17.76684 1.04857,-0.97845 -41.30001,-83.767572 -44.77951,-87.541578 -0.60924,-0.660764 -15.5665,6.512868 -33.23827,15.941175 -17.67176,9.428443 -31.29347,15.770073 -32.48302,16.115803 -1.69457,0.49233 -5.25511,3.27238 -8.67467,6.32052 -1.0034,0.89446 -1.34545,1.79629 -2.58874,2.96251 -5.51302,5.17142 -10.857,8.70745 -17.94783,12.37931 -8.79602,4.55465 -13.75102,6.35743 -23.29653,10.06382 -3.32124,1.28963 -3.68912,1.97875 -4.00105,4.75703 -1.36936,12.19801 -2.99795,56.75683 -3.13657,89.88083 l -0.10353,17.66179 c 0,0 3.93065,1.30654 5.87839,2.00984 12.12616,4.37852 17.11301,21.51722 10.0498,31.99675 -12.4109,18.41358 -40.51126,9.7674 -40.49933,-12.5278 0.004,-9.16508 4.33781,-15.19922 11.57227,-19.09531 2.33547,-1.25776 3.34077,-1.52199 5.81418,-2.08962 l 0.37746,-48.83459 c -0.1432,-18.83726 0.89637,-38.63687 1.30248,-57.14581 0.0694,-3.15547 -0.35695,-5.19917 -2.53337,-6.83248 -3.19768,-2.39978 -9.20258,-5.47965 -9.20258,-5.47965 -6.61665,-3.67983 -10.88535,-6.55376 -15.17368,-9.93612 -3.90317,-3.07841 -7.91293,-6.44453 -11.30193,-11.04701 -0.4507,-0.61219 -0.75052,-2.33629 -1.04857,-2.93697 -1.24817,-2.51655 -3.55996,-6.34886 -4.269,-6.79557 -2.544,-1.60276 -13.74984,-7.49827 -29.98847,-17.967021 C 97.971832,76.679104 90.473134,72.52216 89.183494,73.833948 87.23013,75.821113 41.45165,151.30477 40.99254,153.29548 c -0.16711,0.72527 13.31435,10.20805 29.95895,21.07288 16.644604,10.86482 30.45689,20.7044 30.69382,21.86561 0.28772,1.40951 -10.139396,7.71202 -31.36669,18.95964 -17.488712,9.2665 -31.783582,17.51262 -31.766162,18.32456 0.07381,3.41159 42.528537,82.70601 44.488984,83.09219 1.180548,0.23251 15.640612,-6.57664 32.133598,-15.13145 16.49299,-8.55495 30.95807,-15.55425 32.14452,-15.55425 1.86302,0 2.01212,5.00667 1.09301,36.69282 -0.76631,26.41804 -0.60364,36.97758 0.58061,37.7095 0.90464,0.5592 4.88649,1.40051 8.84843,1.86981 34.70575,4.23014 33.82893,4.63368 59.33611,5.0505 z m 35.00341,-38.30399 c 0.84234,-23.54498 0.68764,-31.82624 -0.615,-32.90611 -2.38295,-1.97551 -3.10409,4.95012 -4.17363,40.0796 -0.78845,25.89398 -0.64851,28.56066 1.39313,26.53806 1.82286,-1.80573 2.4913,-8.44217 3.3955,-33.71155 z M 370.80026,157.83348 c -6.01981,-11.92521 -40.20184,-76.234912 -40.91796,-76.982775 -5.7225,-5.975669 12.52383,31.253755 37.38148,76.272415 6.4054,11.60044 9.33042,12.18812 3.53648,0.71036 z M 223.90292,128.4023 c 7.5058,-3.56896 14.12525,-7.63601 18.17886,-10.69507 1.22912,-0.92752 3.22662,-1.60718 4.25954,-2.03071 3.41573,-1.40007 6.15327,-3.39977 6.64736,-4.90289 1.00546,-3.05833 1.4507,-9.7476 1.75938,-21.926581 0.30869,-12.178973 0.76603,-28.454512 1.01624,-36.167863 l 0.45513,-14.024274 -8.37869,-0.900654 c -4.60809,-0.495426 -26.59681,-1.38486 -48.86367,-1.976684 l -40.48528,-1.075884 -0.94642,7.881495 c -0.52052,4.33483 -1.00827,16.517643 -1.08385,27.072754 -0.0753,10.555112 -0.99173,23.075103 -1.2213,27.892364 -0.28904,6.071177 -0.51993,9.210257 0.15221,11.395387 0.5282,1.71745 1.26912,2.39194 2.86715,3.76544 0.82773,0.7114 1.78315,0.70402 2.35327,1.16609 5.27077,4.27091 16.06695,13.0842 25.25521,17.9208 12.10679,6.37278 18.11479,6.07827 38.03486,-3.39372 z M 147.628,103.75501 C 145.03764,99.845478 98.42804,71.870888 96.179875,71.88757 c -1.290672,0.01476 3.964145,4.057444 11.677495,8.995318 7.71335,4.937873 20.00304,12.83841 27.31043,17.556765 12.21588,7.887697 15.77657,10.320837 12.4602,5.315357 z M 260.63043,87.109075 c 2.22086,-41.118287 2.24345,-49.192283 0.13729,-49.192283 -2.30544,0 -3.12313,8.411907 -4.51877,46.49165 -0.73634,20.089838 -0.60407,21.837868 1.43314,18.929518 1.42235,-2.03086 2.50207,-7.974347 2.9479,-16.228885 z"
       inkscape:connector-curvature="0"
       sodipodi:nodetypes="sssssssssscscssscssssssssscssssccsscsssssscsssccsssscscssscssssssssscsscssssssssscsssccssccc" />
    <path
       style="fill:url(#linearGradient3080);fill-opacity:1;stroke:none;display:inline"
       d="m 193.58231,269.29011 c -3.25608,-0.0952 -6.63894,0.9298 -8.44224,2.95247 -2.78692,3.12594 -4.18517,7.71266 -3.27541,11.67152 1.14331,4.97514 5.21861,9.19391 9.96462,10.47208 7.30276,1.96673 15.00391,-3.70732 14.80853,-11.487 -0.21576,-8.59113 -5.65871,-13.39286 -13.0555,-13.60907 z m -1.29171,10.74886 c 0.34882,-0.0689 0.7219,-0.0289 1.06105,0.046 0.4219,0.0933 0.93655,0.33683 1.38397,0.78426 0.58287,0.58282 0.8511,1.1728 0.87652,1.61462 0.0118,0.19257 -0.0198,0.50908 -0.13832,0.78426 -0.11869,0.27519 -0.31245,0.51959 -0.55359,0.78425 -0.37764,0.41447 -0.83235,0.74011 -1.38398,0.87652 -0.55162,0.13641 -1.09813,0.0266 -1.5685,-0.18453 -0.54059,-0.2426 -0.91546,-0.50299 -1.15331,-0.83039 -0.19021,-0.2618 -0.35457,-0.73398 -0.36906,-1.24557 -0.026,-0.91781 0.36417,-1.73456 0.87651,-2.16823 0.29009,-0.24555 0.61997,-0.39244 0.96879,-0.46132 z"
       id="path3121"
       inkscape:connector-curvature="0"
       sodipodi:nodetypes="sssssscccccsssscscc" />
    <path
       sodipodi:nodetypes="ssssscscssssssssssssss"
       inkscape:connector-curvature="0"
       id="path3123"
       d="m 159.0785,116.77941 c -0.92831,0.58721 -0.19518,1.99621 0.77633,3.03355 5.19899,5.55121 14.62735,13.33828 24.02152,18.27309 4.37745,2.29951 8.24061,4.85322 10.08022,6.29176 2.27285,1.77735 2.10337,4.83292 2.08501,7.96645 -0.066,11.25761 -0.0964,22.2488 -0.53782,33.95351 -0.20893,5.0181 -0.16072,21.80314 -0.65146,37.07701 -0.4258,13.25294 -0.69606,27.49733 -0.80888,40.39333 0.0945,3.88775 2.87149,3.53418 3.18299,1.24558 0.36787,-2.70261 0.0963,-5.74724 0.0921,-7.85643 -0.0199,-10.16607 0.12342,-33.90341 0.76186,-56.84545 0.63851,-22.94203 1.41049,-45.16735 1.8453,-50.62972 0.25329,-3.18189 0.98049,-4.45173 2.21998,-5.12166 1.90087,-1.02739 4.25494,-1.66253 6.06804,-2.36067 13.59057,-5.23308 24.32744,-9.91548 34.74567,-18.18643 1.53138,-1.21574 3.63049,-2.60531 2.99862,-3.77958 -1.02762,-1.90975 -6.4876,2.59168 -8.27354,3.66686 -5.39432,3.24748 -13.68066,7.4754 -20.00472,10.24372 -7.509,3.28704 -13.39116,5.04545 -18.56203,4.88771 -5.17089,-0.15773 -10.21762,-2.28792 -16.28246,-5.98137 -9.24437,-5.62979 -12.8973,-8.00293 -18.53966,-13.02848 -1.84387,-1.6423 -4.25687,-3.85019 -5.21708,-3.24278 z"
       style="fill:url(#linearGradient3076);fill-opacity:1;stroke:url(#linearGradient3078);stroke-width:1.77148736;stroke-linecap:round;stroke-linejoin:round;stroke-miterlimit:4;stroke-opacity:1;stroke-dasharray:none;display:inline" />
    <path
       sodipodi:nodetypes="sssssscccccsssscscc"
       inkscape:connector-curvature="0"
       id="path3125"
       d="m 193.58231,269.29011 c -3.25608,-0.0952 -6.63894,0.9298 -8.44224,2.95247 -2.78692,3.12594 -4.18517,7.71266 -3.27541,11.67152 1.14331,4.97514 5.21861,9.19391 9.96462,10.47208 7.30276,1.96673 15.00391,-3.70732 14.80853,-11.487 -0.21576,-8.59113 -5.65871,-13.39286 -13.0555,-13.60907 z m -1.29171,10.74886 c 0.34882,-0.0689 0.7219,-0.0289 1.06105,0.046 0.4219,0.0933 0.93655,0.33683 1.38397,0.78426 0.58287,0.58282 0.8511,1.1728 0.87652,1.61462 0.0118,0.19257 -0.0198,0.50908 -0.13832,0.78426 -0.11869,0.27519 -0.31245,0.51959 -0.55359,0.78425 -0.37764,0.41447 -0.83235,0.74011 -1.38398,0.87652 -0.55162,0.13641 -1.09813,0.0266 -1.5685,-0.18453 -0.54059,-0.2426 -0.91546,-0.50299 -1.15331,-0.83039 -0.19021,-0.2618 -0.35457,-0.73398 -0.36906,-1.24557 -0.026,-0.91781 0.36417,-1.73456 0.87651,-2.16823 0.29009,-0.24555 0.61997,-0.39244 0.96879,-0.46132 z"
       style="fill:url(#radialGradient3074);fill-opacity:1;stroke:#363636;stroke-width:2.21435905;stroke-linecap:round;stroke-linejoin:round;stroke-miterlimit:4;stroke-opacity:1;display:inline" />
    <path
       style="fill:url(#linearGradient3072);fill-opacity:1;stroke:none;display:inline"
       d="m 199.11408,261.05334 c -0.4042,0.34716 -0.4751,2.40508 -0.44965,3.11394 0.0911,2.53664 0.33966,2.62956 3.14853,4.64786 2.79369,2.00737 4.98259,5.07936 6.20483,8.82283 0.87745,2.6875 0.96543,6.53412 0.23067,8.99583 -2.00059,6.7026 -8.11773,10.80164 -14.3393,10.192 -3.89378,-0.38154 -6.65993,-1.51599 -9.69572,-4.60997 -4.18242,-4.26256 -5.74404,-9.66917 -4.29033,-14.94692 0.68877,-2.50059 2.49111,-5.42323 3.70738,-6.75676 2.35328,-2.12075 4.53987,-3.04983 7.24465,-4.00514 1.72109,-0.60786 1.86,-4.31663 1.1183,-5.26566 -0.97162,-1.2432 -4.20254,0.58603 -5.51951,1.40029 -3.50504,2.16712 -7.27676,5.67825 -9.13424,11.92853 -0.82544,2.77756 -0.84697,7.89318 0.41192,11.56274 1.30923,3.81629 3.90861,7.83843 7.17387,10.0094 3.44591,2.29108 7.41254,4.04284 11.49372,4.05734 4.21097,0.0149 9.35602,-1.73605 12.42602,-3.97645 3.71167,-2.70867 5.56594,-6.62068 6.53794,-9.74961 1.61789,-5.20812 1.51297,-9.60883 -0.73683,-14.67319 -2.35779,-5.30742 -5.13109,-7.83659 -8.93467,-9.57068 -2.08372,-0.94997 -6.00074,-1.68899 -6.59758,-1.17638 z"
       id="path3127"
       inkscape:connector-curvature="0"
       sodipodi:nodetypes="sssssssscssssssssssss" />
    <path
       sodipodi:nodetypes="sssssssscssssssssssss"
       inkscape:connector-curvature="0"
       id="path3129"
       d="m 199.11408,261.05334 c -0.4042,0.34716 -0.4751,2.40508 -0.44965,3.11394 0.0911,2.53664 0.33966,2.62956 3.14853,4.64786 2.79369,2.00737 4.98259,5.07936 6.20483,8.82283 0.87745,2.6875 0.96543,6.53412 0.23067,8.99583 -2.00059,6.7026 -8.11773,10.80164 -14.3393,10.192 -3.89378,-0.38154 -6.65993,-1.51599 -9.69572,-4.60997 -4.18242,-4.26256 -5.74404,-9.66917 -4.29033,-14.94692 0.68877,-2.50059 2.49111,-5.42323 3.70738,-6.75676 2.35328,-2.12075 4.53987,-3.04983 7.24465,-4.00514 1.72109,-0.60786 1.86,-4.31663 1.1183,-5.26566 -0.97162,-1.2432 -4.20254,0.58603 -5.51951,1.40029 -3.50504,2.16712 -7.27676,5.67825 -9.13424,11.92853 -0.82544,2.77756 -0.84697,7.89318 0.41192,11.56274 1.30923,3.81629 3.90861,7.83843 7.17387,10.0094 3.44591,2.29108 7.41254,4.04284 11.49372,4.05734 4.21097,0.0149 9.35602,-1.73605 12.42602,-3.97645 3.71167,-2.70867 5.56594,-6.62068 6.53794,-9.74961 1.61789,-5.20812 1.51297,-9.60883 -0.73683,-14.67319 -2.35779,-5.30742 -5.13109,-7.83659 -8.93467,-9.57068 -2.08372,-0.94997 -6.00074,-1.68899 -6.59758,-1.17638 z"
       style="fill:url(#radialGradient3070);fill-opacity:1;stroke:#363636;stroke-width:2.21435905;stroke-linecap:round;stroke-linejoin:round;stroke-miterlimit:4;stroke-opacity:1;display:inline" />
    <path
       sodipodi:nodetypes="zzzzzccsssssssssscsssssscsscccssssssssscsscsssccssssssssssscssscssssssssscssssccsscsssssscsssccsssssscssscsssssssssscszsssscssscsscsssscssssssssssccsssssssssscsscssssssssscsssccssccc"
       inkscape:connector-curvature="0"
       d="m 190.40321,282.6138 c 0.0473,1.55433 1.18277,2.19133 2.43418,2.36892 1.25141,0.17759 2.67199,-0.91704 2.76529,-2.33644 0.093,-1.41941 -1.36951,-2.7343 -2.69207,-2.69193 -1.32241,0.0428 -2.55464,1.10497 -2.5074,2.65945 z m -37.52054,81.96509 -7.3812,-1.2421 0.56777,-36.68087 c 0.39135,-25.28266 0.0841,-36.50725 -0.98672,-36.12239 -0.85504,0.30706 -15.07654,7.49619 -31.60333,15.97601 -17.998905,9.23521 -30.984054,15.05897 -32.381167,14.5228 -3.339401,-1.28152 -45.900121,-84.47352 -45.311692,-88.5695 0.375999,-2.61796 6.094212,-6.27681 27.783859,-17.77776 15.020736,-7.9649 28.884096,-15.34934 30.807341,-16.41017 3.352398,-1.84913 2.234002,-2.74595 -27.049279,-21.69112 -25.719337,-16.63928 -30.453342,-20.24913 -29.957473,-22.84333 0.324034,-1.69457 11.724883,-21.47293 25.33522,-43.95192 l 24.746055,-40.87072 6.74435,0 c 6.003126,0 9.143676,1.541341 28.574236,14.024273 12.00654,7.71335 22.15466,14.024271 22.55147,14.024271 0.39667,0 0.93151,-1.826838 1.18852,-4.059652 0.27901,-2.425617 1.73001,-4.61443 3.60439,-5.437583 2.95868,-1.299533 3.21082,-2.89712 4.42872,-28.048548 l 1.29141,-26.670626 45.0253,0.333629 c 24.76392,0.183498 49.2686,0.744468 54.45508,1.24639 l 9.42977,0.912758 -0.73177,27.909339 -0.73177,27.909338 4.21909,0 c 5.60144,0 5.46799,3.047546 -0.4563,10.419591 -2.57146,3.19976 -5.74774,7.38312 -4.01907,6.47405 0.45188,-0.23753 13.59203,-6.21217 29.40241,-14.606943 31.7015,-16.832379 36.55228,-18.591022 40.05362,-14.521621 4.79512,5.572951 45.65005,85.191704 45.22859,88.141824 -0.33747,2.3608 -7.67232,6.83056 -31.68808,19.31053 -17.18697,8.93125 -31.65706,16.64756 -32.15588,17.14726 -0.49868,0.49986 13.05807,9.80017 30.12635,20.66735 23.45582,14.93438 31.03675,20.48209 31.04856,22.7214 0.0177,3.24137 -50.36589,82.82426 -54.35616,85.85867 -5.145,3.91262 -9.90129,1.88929 -37.15503,-15.8055 l -27.31043,-17.73156 -0.91306,16.64504 c -0.50207,9.15475 -1.00029,23.74104 -1.10718,32.41409 -0.19057,15.4825 -0.26911,15.82233 -4.31844,18.70572 -2.26839,1.61531 -6.39905,3.15517 -9.1794,3.42207 -15.65738,1.24455 -59.01741,-0.17176 -87.81868,-5.74449 z m 82.95137,2.65575 c 4.21472,-0.0595 7.96992,-0.6147 8.34489,-1.22365 0.37511,-0.60895 1.10658,-15.3898 1.62578,-32.84632 1.05684,-35.54003 1.64675,-41.33486 4.20758,-41.33471 0.97815,0 15.61876,8.96815 32.53469,19.92923 16.91608,10.96108 31.30218,19.92923 31.96944,19.92923 0.66711,0 12.97629,-18.33548 27.35368,-40.74539 21.63784,-33.7266 25.79389,-41.06027 24.12766,-42.57459 -1.10704,-1.0062 -15.45682,-10.35863 -31.88825,-20.78323 -16.43143,-10.42462 -29.5763,-18.7309 -29.21094,-19.61819 0.19674,-0.47779 14.99195,8.48026 32.50354,19.65686 17.5116,11.17661 32.26203,19.89853 32.77858,19.38184 1.21036,-1.21037 4.13922,0.83083 -30.70106,-21.39661 -16.72564,-10.67055 -31.50649,-19.40104 -32.84633,-19.40104 -6.00563,0 -0.36832,-3.6401 29.67212,-19.15907 17.65951,-9.12301 32.677,-17.11803 33.37216,-17.76683 1.04857,-0.97846 -41.30001,-83.767581 -44.77951,-87.541587 -0.60924,-0.660765 -15.5665,6.512874 -33.23827,15.94117 -17.67176,9.428437 -31.29347,15.770077 -32.48302,16.115817 -1.69457,0.49232 -5.25511,3.27237 -8.67467,6.32051 -1.0034,0.89445 -1.34545,1.79629 -2.58874,2.96252 -5.51302,5.17142 -10.857,8.70745 -17.94783,12.3793 -8.79602,4.55464 -13.75102,6.35742 -23.29653,10.06382 -3.32124,1.28964 -3.68912,1.97874 -4.00105,4.75703 -1.36936,12.19802 -2.99795,56.75682 -3.13657,89.88083 l -0.10353,17.66179 c 0,0 3.93065,1.30655 5.87839,2.00984 12.12616,4.37853 17.11301,21.51723 10.0498,31.99675 -12.4109,18.41358 -40.51126,9.76741 -40.49933,-12.52779 0.004,-9.16509 4.33781,-15.19923 11.57227,-19.09532 2.33547,-1.25776 3.34077,-1.52199 5.81418,-2.08962 l 0.37746,-48.83459 c -0.1432,-18.83726 0.89637,-38.63688 1.30248,-57.14582 0.0694,-3.15546 -0.35695,-5.19916 -2.53337,-6.83247 -3.19768,-2.39978 -9.20258,-5.47965 -9.20258,-5.47965 -6.61665,-3.67983 -10.88535,-6.55377 -15.17368,-9.93613 -3.90317,-3.0784 -7.91293,-6.44453 -11.30193,-11.04699 -0.4507,-0.6122 -0.75052,-2.3363 -1.04857,-2.93699 -1.24817,-2.51654 -3.55996,-6.34886 -4.269,-6.79556 -2.544,-1.60275 -13.74984,-7.49826 -29.98847,-17.967013 C 97.971832,76.679443 90.473134,72.522501 89.183494,73.834287 87.23013,75.821453 41.45165,151.30511 40.99254,153.29582 c -0.16711,0.72528 13.31435,10.20804 29.95895,21.07287 16.644604,10.86483 30.45689,20.70441 30.69382,21.86562 0.28772,1.40951 -10.139396,7.71202 -31.36669,18.95963 -17.488712,9.26651 -31.783582,17.51263 -31.766162,18.32456 0.07381,3.41159 42.528537,82.70602 44.488984,83.09221 1.180548,0.2325 15.640612,-6.57665 32.133598,-15.13145 16.49299,-8.55496 30.95807,-15.55426 32.14452,-15.55426 1.86302,0 2.01212,5.00667 1.09301,36.69282 -0.76631,26.41804 -0.60364,36.97758 0.58061,37.7095 0.90464,0.5592 4.9025,1.28089 8.84843,1.86981 26.96634,4.02469 51.49382,5.4118 78.03238,5.03751 z m 16.30713,-38.29099 c 0.84234,-23.54498 0.68764,-31.82624 -0.615,-32.90611 -2.38295,-1.97551 -3.10409,4.95012 -4.17363,40.0796 -0.78845,25.89398 -0.64851,28.56066 1.39313,26.53806 1.82286,-1.80573 2.4913,-8.44217 3.3955,-33.71155 z m -53.63449,-29.05621 c 7.35381,-1.02536 12.32825,-4.15628 15.37651,-9.48445 4.91663,-8.59398 3.6296,-25.51361 -11.63655,-29.12985 -3.10743,-0.73609 -3.57223,-0.70442 -3.50312,2.56954 0.0508,2.40771 0.52762,3.20949 3.05848,4.90391 3.07249,2.05729 7.0179,7.97761 6.94881,14.104 -0.0782,6.98925 -5.86229,13.48697 -12.47466,13.90061 -6.18884,0.38707 -9.53061,-2.05881 -12.44988,-4.998 -2.91911,-2.93935 -4.79807,-8.13836 -4.3955,-11.73699 0.40257,-3.59848 2.1493,-7.90963 4.27863,-9.58458 2.12933,-1.67493 5.0109,-3.37104 6.69234,-3.69774 1.88826,-0.36699 1.60774,-2.12841 1.74769,-3.62012 0.13995,-1.49191 0.20855,-1.58094 -0.3901,-1.93978 -0.59866,-0.35886 -1.3902,0.0176 -3.12479,0.74367 -6.17877,2.58642 -11.63794,7.75839 -11.80815,16.06328 -0.1636,7.9828 2.78389,13.26942 5.77542,16.13055 2.4399,2.33355 9.31959,6.69415 15.90487,5.77595 z m 4.57404,-8.51334 c 5.97921,-5.58757 3.66269,-14.85466 -0.26145,-18.60136 -5.82066,-5.55759 -15.68829,-4.02776 -18.78116,0.66505 -4.34531,6.59347 -2.46989,13.57092 1.87852,17.7035 4.46607,4.2442 11.54065,5.48778 17.16409,0.23281 z M 180.11929,136.32055 c 2.26455,1.18778 4.29128,2.18896 7.48704,3.91616 0,0 6.85537,3.60587 8.00196,6.31063 1.33806,3.15635 -0.3819,52.80966 -0.3819,52.80966 -0.22144,16.58377 -1.62478,53.53038 -1.17661,65.63883 0.10286,2.78203 3.38788,2.75905 3.41731,0.0189 0.0914,-8.50323 0.14379,-50.72112 0.78589,-65.24602 1.02988,-23.29737 1.23931,-48.02291 1.9659,-52.23353 0.5688,-1.37644 1.42221,-2.80544 3.58519,-3.59774 0.79806,-0.29214 14.75738,-5.0666 24.46971,-10.26104 7.08978,-3.79172 14.1871,-8.91915 17.08259,-11.88742 1.39416,-1.4293 0.60896,-2.63641 -1.90937,-1.51683 -1.60452,0.71332 -7.26988,5.02659 -18.2782,10.28747 -10.56116,5.04726 -17.82913,8.16005 -24.79152,8.33455 -4.56232,0.11367 -8.58773,-1.2582 -12.11373,-2.85859 -3.45071,-1.56643 -10.68501,-6.34134 -15.43969,-9.37928 -4.60749,-2.94407 -7.81506,-6.14412 -11.56884,-9.10796 -2.33542,-1.84383 -3.50253,-0.65013 -1.71628,1.72971 1.55699,2.0747 4.5201,5.37439 8.56352,8.60367 4.23503,3.38251 9.9559,7.35743 12.01747,8.43877 z m 190.68097,21.51293 c -6.01981,-11.92521 -40.20184,-76.234912 -40.91796,-76.982775 -5.7225,-5.975669 12.52383,31.253755 37.38148,76.272415 6.4054,11.60044 9.33042,12.18812 3.53648,0.71036 z M 223.90292,128.4023 c 7.5058,-3.56896 14.12525,-7.63601 18.17886,-10.69507 1.22912,-0.92752 3.22662,-1.60718 4.25954,-2.03071 3.41573,-1.40007 6.15327,-3.39977 6.64736,-4.90289 1.00546,-3.05833 1.4507,-9.7476 1.75938,-21.926581 0.30869,-12.178973 0.76603,-28.454512 1.01624,-36.167863 l 0.45513,-14.024274 -8.37869,-0.900654 c -4.60809,-0.495426 -26.59681,-1.38486 -48.86367,-1.976684 l -40.48528,-1.075884 -0.94642,7.881495 c -0.52052,4.33483 -1.00827,16.517643 -1.08385,27.072754 -0.0753,10.555112 -0.99173,23.075103 -1.2213,27.892364 -0.28904,6.071177 -0.51993,9.210257 0.15221,11.395387 0.5282,1.71745 1.26912,2.39194 2.86715,3.76544 0.82773,0.7114 1.78315,0.70402 2.35327,1.16609 5.27077,4.27091 16.06695,13.0842 25.25521,17.9208 12.10679,6.37278 18.11479,6.07827 38.03486,-3.39372 z M 147.628,103.75501 C 145.03764,99.845478 98.42804,71.870888 96.179875,71.88757 c -1.290672,0.01476 3.964145,4.057444 11.677495,8.995318 7.71335,4.937873 20.00304,12.83841 27.31043,17.556765 12.21588,7.887697 15.77657,10.320837 12.4602,5.315357 z M 260.63043,87.109075 c 2.22086,-41.118287 2.24345,-49.192283 0.13729,-49.192283 -2.30544,0 -3.12313,8.411907 -4.51877,46.49165 -0.73634,20.089838 -0.60407,21.837868 1.43314,18.929518 1.42235,-2.03086 2.50207,-7.974347 2.9479,-16.228885 z"
       style="font-size:medium;font-style:normal;font-variant:normal;font-weight:normal;font-stretch:normal;text-indent:0;text-align:start;text-decoration:none;line-height:normal;letter-spacing:normal;word-spacing:normal;text-transform:none;direction:ltr;block-progression:tb;writing-mode:lr-tb;text-anchor:start;baseline-shift:baseline;color:#000000;fill:#000000;fill-opacity:1;stroke:none;stroke-width:0.89999998;marker:none;visibility:visible;display:inline;overflow:visible;enable-background:accumulate;font-family:Sans;-inkscape-font-specification:Sans"
       id="path3131" />
  </g>
</svg>
