<?xml version="1.0" encoding="UTF-8" standalone="no"?>
<!-- Created with Inkscape (http://www.inkscape.org/) -->

<svg
   xmlns:dc="http://purl.org/dc/elements/1.1/"
   xmlns:cc="http://creativecommons.org/ns#"
   xmlns:rdf="http://www.w3.org/1999/02/22-rdf-syntax-ns#"
   xmlns:svg="http://www.w3.org/2000/svg"
   xmlns="http://www.w3.org/2000/svg"
   xmlns:xlink="http://www.w3.org/1999/xlink"
   xmlns:sodipodi="http://sodipodi.sourceforge.net/DTD/sodipodi-0.dtd"
   xmlns:inkscape="http://www.inkscape.org/namespaces/inkscape"
   width="858.23987"
   height="405.77429"
   id="svg2"
   version="1.1"
   inkscape:version="0.48.1 "
   sodipodi:docname="Logo (With Text).svg"
   style="display:inline"
   inkscape:export-filename="C:\Users\Wolter van der Velde\Documents\Archief\TH\Afbeeldingen\Logo\Logo 3.png"
   inkscape:export-xdpi="107.35033"
   inkscape:export-ydpi="107.35033">
  <defs
     id="defs4">
    <linearGradient
       id="linearGradient4042">
      <stop
         style="stop-color:#21ff2c;stop-opacity:0.39830509;"
         offset="0"
         id="stop4044" />
      <stop
         style="stop-color:#006a00;stop-opacity:1;"
         offset="0.77741802"
         id="stop4046" />
    </linearGradient>
    <linearGradient
       id="linearGradient3794">
      <stop
         style="stop-color:#6d7881;stop-opacity:1;"
         offset="0"
         id="stop3806" />
      <stop
         style="stop-color:#dadee2;stop-opacity:1;"
         offset="1"
         id="stop3798" />
    </linearGradient>
    <linearGradient
       id="linearGradient3786">
      <stop
         style="stop-color:#5bde00;stop-opacity:1;"
         offset="0"
         id="stop3788" />
      <stop
         style="stop-color:#2f7300;stop-opacity:1;"
         offset="1"
         id="stop3790" />
    </linearGradient>
    <radialGradient
       inkscape:collect="always"
       xlink:href="#linearGradient3893"
       id="radialGradient4152"
       gradientUnits="userSpaceOnUse"
       gradientTransform="matrix(1.8267508,-4.4437642e-8,4.0381054e-8,1.6599918,-309.0541,-4442.0329)"
       cx="300.18167"
       cy="289.95377"
       fx="300.18167"
       fy="289.95377"
       r="381.5" />
    <linearGradient
       id="linearGradient3893">
      <stop
         id="stop3895"
         offset="0"
         style="stop-color:#21ff2c;stop-opacity:0.39830509;" />
      <stop
         id="stop3897"
         offset="0.80000001"
         style="stop-color:#006a00;stop-opacity:1;" />
    </linearGradient>
    <radialGradient
       inkscape:collect="always"
       xlink:href="#linearGradient3893-1"
       id="radialGradient4152-3"
       gradientUnits="userSpaceOnUse"
       gradientTransform="matrix(1.8267508,-4.4437642e-8,4.0381054e-8,1.6599918,-309.0541,-4442.0329)"
       cx="300.18167"
       cy="289.95377"
       fx="300.18167"
       fy="289.95377"
       r="381.5" />
    <linearGradient
       id="linearGradient3893-1">
      <stop
         id="stop3895-6"
         offset="0"
         style="stop-color:#21ff2c;stop-opacity:0.39830509;" />
      <stop
         id="stop3897-8"
         offset="0.80000001"
         style="stop-color:#006a00;stop-opacity:1;" />
    </linearGradient>
    <radialGradient
       r="381.5"
       fy="289.95377"
       fx="300.18167"
       cy="289.95377"
       cx="300.18167"
       gradientTransform="matrix(1.8267508,-4.4437642e-8,4.0381054e-8,1.6599918,-583.0297,-3703.49)"
       gradientUnits="userSpaceOnUse"
       id="radialGradient3999"
       xlink:href="#linearGradient3893-1"
       inkscape:collect="always" />
    <radialGradient
       inkscape:collect="always"
       xlink:href="#linearGradient3881"
       id="radialGradient5085"
       gradientUnits="userSpaceOnUse"
       gradientTransform="matrix(1.2315113,-0.01218067,0.01149812,1.1625025,109.80017,-117.17748)"
       cx="181.93054"
       cy="616.80823"
       fx="181.93054"
       fy="616.80823"
       r="13.113482" />
    <linearGradient
       id="linearGradient3881">
      <stop
         style="stop-color:#ffffff;stop-opacity:0.28225806;"
         offset="0"
         id="stop3883" />
      <stop
         id="stop3885"
         offset="1"
         style="stop-color:#35383a;stop-opacity:0.33870968;" />
    </linearGradient>
    <linearGradient
       gradientTransform="translate(-13.52278,113.69304)"
       inkscape:collect="always"
       xlink:href="#linearGradient3869"
       id="linearGradient5088"
       gradientUnits="userSpaceOnUse"
       x1="345.96069"
       y1="474.71167"
       x2="368.40686"
       y2="490.66577" />
    <linearGradient
       id="linearGradient3869">
      <stop
         id="stop3871"
         offset="0"
         style="stop-color:#323c41;stop-opacity:1;" />
      <stop
         style="stop-color:#bfc2c4;stop-opacity:1;"
         offset="0.47168705"
         id="stop3873" />
      <stop
         id="stop3875"
         offset="1"
         style="stop-color:#474f55;stop-opacity:1;" />
    </linearGradient>
    <radialGradient
       inkscape:collect="always"
       xlink:href="#linearGradient3881"
       id="radialGradient5091"
       gradientUnits="userSpaceOnUse"
       gradientTransform="matrix(1,0,0,1.0176175,159.01127,-30.102581)"
       cx="182.81557"
       cy="616.4082"
       fx="182.81557"
       fy="616.4082"
       r="9.1531897" />
    <linearGradient
       id="linearGradient5767">
      <stop
         style="stop-color:#ffffff;stop-opacity:0.28225806;"
         offset="0"
         id="stop5769" />
      <stop
         id="stop5771"
         offset="1"
         style="stop-color:#35383a;stop-opacity:0.33870968;" />
    </linearGradient>
    <linearGradient
       inkscape:collect="always"
       xlink:href="#linearGradient3843"
       id="linearGradient5094"
       gradientUnits="userSpaceOnUse"
       x1="183.94894"
       y1="605.26782"
       x2="186.02235"
       y2="513.76227"
       gradientTransform="translate(159.01127,-19.243031)" />
    <linearGradient
       id="linearGradient3843">
      <stop
         style="stop-color:#090909;stop-opacity:1;"
         offset="0"
         id="stop3845" />
      <stop
         style="stop-color:#232323;stop-opacity:1;"
         offset="1"
         id="stop3847" />
    </linearGradient>
    <linearGradient
       inkscape:collect="always"
       xlink:href="#linearGradient4196"
       id="linearGradient5096"
       gradientUnits="userSpaceOnUse"
       x1="183.94894"
       y1="605.26782"
       x2="186.02235"
       y2="513.76227"
       gradientTransform="translate(159.01127,-19.243031)" />
    <linearGradient
       id="linearGradient4196">
      <stop
         style="stop-color:#141414;stop-opacity:1;"
         offset="0"
         id="stop4198" />
      <stop
         style="stop-color:#2c2c2c;stop-opacity:1;"
         offset="1"
         id="stop4200" />
    </linearGradient>
    <linearGradient
       inkscape:collect="always"
       xlink:href="#linearGradient3869"
       id="linearGradient5099"
       gradientUnits="userSpaceOnUse"
       x1="175.55019"
       y1="619.28473"
       x2="190.13467"
       y2="612.74402"
       gradientTransform="translate(159.01127,-19.243031)" />
    <linearGradient
       id="linearGradient5782">
      <stop
         id="stop5784"
         offset="0"
         style="stop-color:#323c41;stop-opacity:1;" />
      <stop
         style="stop-color:#bfc2c4;stop-opacity:1;"
         offset="0.47168705"
         id="stop5786" />
      <stop
         id="stop5788"
         offset="1"
         style="stop-color:#474f55;stop-opacity:1;" />
    </linearGradient>
    <radialGradient
       inkscape:collect="always"
       xlink:href="#linearGradient4042-4"
       id="radialGradient5102"
       gradientUnits="userSpaceOnUse"
       gradientTransform="matrix(0.22384791,1.6576284,-1.4344324,0.1937073,876.1956,-97.461031)"
       cx="331.15625"
       cy="441.51154"
       fx="331.15625"
       fy="441.51154"
       r="114.60079" />
    <linearGradient
       id="linearGradient4042-4">
      <stop
         style="stop-color:#21ff2c;stop-opacity:0.39830509;"
         offset="0"
         id="stop4044-3" />
      <stop
         style="stop-color:#006a00;stop-opacity:1;"
         offset="0.77741802"
         id="stop4046-4" />
    </linearGradient>
    <radialGradient
       inkscape:collect="always"
       xlink:href="#linearGradient4103"
       id="radialGradient4123"
       gradientUnits="userSpaceOnUse"
       gradientTransform="matrix(1.4138716,3.7581171e-8,-3.4897058e-8,1.3128908,-142.55404,-522.17495)"
       cx="325.68497"
       cy="1693.2343"
       fx="325.68497"
       fy="1693.2343"
       r="200.17188" />
    <linearGradient
       id="linearGradient4103">
      <stop
         style="stop-color:#3e3e3e;stop-opacity:1;"
         offset="0"
         id="stop4105" />
      <stop
         style="stop-color:#000000;stop-opacity:1;"
         offset="1"
         id="stop4107" />
    </linearGradient>
    <radialGradient
       inkscape:collect="always"
       xlink:href="#linearGradient4111"
       id="radialGradient4125"
       gradientUnits="userSpaceOnUse"
       gradientTransform="matrix(1.4489327,1.8682939e-8,-1.734859e-8,1.3454474,-152.24915,-582.85858)"
       cx="324.49527"
       cy="1697.365"
       fx="324.49527"
       fy="1697.3651"
       r="195.32812" />
    <linearGradient
       id="linearGradient4111">
      <stop
         style="stop-color:#ffffff;stop-opacity:1;"
         offset="0"
         id="stop4113" />
      <stop
         style="stop-color:#dcdcdc;stop-opacity:1;"
         offset="1"
         id="stop4115" />
    </linearGradient>
    <radialGradient
       r="195.32812"
       fy="1697.3651"
       fx="324.49527"
       cy="1697.365"
       cx="324.49527"
       gradientTransform="matrix(1.4489327,1.8682939e-8,-1.734859e-8,1.3454474,-152.24915,-582.85858)"
       gradientUnits="userSpaceOnUse"
       id="radialGradient5813"
       xlink:href="#linearGradient4111"
       inkscape:collect="always" />
  </defs>
  <sodipodi:namedview
     id="base"
     pagecolor="#ffffff"
     bordercolor="#666666"
     borderopacity="1.0"
     inkscape:pageopacity="0.0"
     inkscape:pageshadow="2"
     inkscape:zoom="0.49497475"
     inkscape:cx="217.19404"
     inkscape:cy="-50.352233"
     inkscape:document-units="px"
     inkscape:current-layer="g3893"
     showgrid="false"
     inkscape:window-width="1842"
     inkscape:window-height="1053"
     inkscape:window-x="69"
     inkscape:window-y="-9"
     inkscape:window-maximized="1"
     showborder="true"
     inkscape:showpageshadow="false"
     showguides="true"
     inkscape:guide-bbox="true"
     inkscape:snap-to-guides="false"
     fit-margin-top="0"
     fit-margin-left="0"
     fit-margin-right="0"
     fit-margin-bottom="0" />
  <metadata
     id="metadata7">
    <rdf:RDF>
      <cc:Work
         rdf:about="">
        <dc:format>image/svg+xml</dc:format>
        <dc:type
           rdf:resource="http://purl.org/dc/dcmitype/StillImage" />
        <dc:title />
      </cc:Work>
    </rdf:RDF>
  </metadata>
  <g
     inkscape:label="Logo"
     inkscape:groupmode="layer"
     id="layer1"
     style="display:inline"
     transform="translate(-148.39955,-392.00755)">
    <g
       style="display:inline"
       id="g4119"
       transform="translate(-193.11983,-1409.9686)">
      <path
         id="path4166-0"
         transform="translate(157.30063,278.87543)"
         style="fill:url(#radialGradient4123);fill-opacity:1;stroke:none;display:inline"
         d="m 381.96875,1523.75 0,4.8438 -173.9375,0 c -13.83744,0 -23.8125,11.4497 -23.8125,23.875 l 0,347.7812 c 0,13.2638 10.26904,23.8125 23.65625,23.8125 l 174.09375,0 0,4.8125 177.96875,0 c 14.38994,0 24.625,-8.9464 24.625,-24.625 l 0,-351.75 c 0,-15.3331 -12.57931,-28.7497 -28.75,-28.75 -60.83839,0 -113.00536,0 -173.84375,0 z m 0,4.9062 173.84375,0 c 14.36505,0 23.8125,11.3141 23.8125,23.875 l 0,351.8438 c 0,10.8388 -8.72376,19.5625 -19.5625,19.5625 l -178.09375,0 0,-4.6875 173.84375,0 c 10.58066,0 19.09375,-8.5131 19.09375,-19.0938 l 0,-347.6562 c 0,-10.5807 -8.51309,-19.0938 -19.09375,-19.0938 l -173.84375,0 0,385.8126 -173.8125,0 c -10.58065,-2e-4 -19.09375,-8.5135 -19.09375,-19.0938 l 0,-347.625 c 0,-10.5804 8.5131,-19.0938 19.09375,-19.0938 l 173.8125,0 z"
         inkscape:connector-curvature="0"
         sodipodi:nodetypes="ccssssccssscccssssccsssscccssscc" />
      <path
         transform="translate(157.30063,278.87543)"
         id="path4160-3"
         d="m 381.96875,1528.5625 0,4.8437 173.84375,0 c 10.58065,0 19.09375,8.5135 19.09375,19.0938 l 0,347.625 c 0,10.5803 -8.5131,19.0938 -19.09375,19.0938 l -173.84375,0 0,-385.8126 -173.8125,0 c -10.58066,0 -19.09375,8.5131 -19.09375,19.0938 l 0,347.6562 c 0,10.5806 8.51309,19.0938 19.09375,19.0938 l 173.8125,0 0,4.8125 178.1875,0 c 10.84515,0 19.5625,-8.7178 19.5625,-19.5625 l 0,-352 c 0,-12.813 -10.27285,-23.9375 -23.90625,-23.9375 l -173.84375,0 z"
         style="fill:url(#radialGradient5813);fill-opacity:1;stroke:none;display:inline"
         inkscape:connector-curvature="0" />
    </g>
    <path
       id="path4382"
       style="font-size:medium;font-style:normal;font-variant:normal;font-weight:normal;font-stretch:normal;text-indent:0;text-align:start;text-decoration:none;line-height:normal;letter-spacing:normal;word-spacing:normal;text-transform:none;direction:ltr;block-progression:tb;writing-mode:lr-tb;text-anchor:start;baseline-shift:baseline;color:#000000;fill:#006a00;fill-opacity:1;stroke:none;stroke-width:2;marker:none;visibility:visible;display:inline;overflow:visible;enable-background:accumulate;font-family:Sans;-inkscape-font-specification:Sans"
       d="m 382.3441,755.35015 c 11.137,-2.0073 17.4327,-4.166 21.0659,-7.2231 3.5076,-2.9515 3.618,-3.6714 0.969,-6.3204 -2.6091,-2.6091 -3.4408,-2.5228 -4.8181,0.5 -0.6265,1.375 -1.5729,2.5 -2.1031,2.5 -1.0884,0 -0.6805,-3.1026 0.7423,-5.6449 1.5114,-2.7007 -0.1317,-6.437 -8.5953,-19.5453 -9.7262,-15.0635 -22.2566,-36.8072 -24.5382,-42.5801 -2.2702,-5.7443 -2.1571,-12.8834 0.2761,-17.4233 1.432,-2.6717 1.6351,-3.7973 0.75,-4.1562 -0.6675,-0.2708 1.1222,-0.5279 3.9773,-0.5713 2.855,-0.043 5.3988,-0.4164 5.6528,-0.8289 0.2541,-0.4125 0.7496,-10.425 1.1013,-22.25 0.7159,-24.0747 1.1155,-28.0001 2.8502,-28 0.6626,0 10.5801,6.075 22.0389,13.5 11.4589,7.425 21.204,13.5 21.656,13.5 0.4519,0 8.7901,-12.4204 18.5293,-27.6008 14.6574,-22.8463 17.4727,-27.8141 16.344,-28.8399 -0.7499,-0.6816 -10.4704,-7.0169 -21.601,-14.0785 -11.1306,-7.0616 -20.0349,-13.0418 -19.7874,-13.2893 0.2475,-0.2475 10.1555,5.7445 22.0178,13.3155 11.8623,7.571 21.8542,13.4792 22.2041,13.1292 0.8199,-0.8199 2.8039,0.5628 -20.7968,-14.494 -11.3299,-7.2282 -21.3424,-13.1422 -22.25,-13.1422 -4.0682,0 -0.2495,-2.4658 20.0998,-12.9783 11.9625,-6.1799 22.1353,-11.5957 22.6062,-12.0352 0.7103,-0.6628 -27.9765,-56.7439 -30.3335,-59.3004 -0.4127,-0.4476 -10.5447,4.4118 -22.5155,10.7985 -11.9708,6.3868 -21.1981,10.6826 -22.0039,10.9168 -1.1479,0.3335 -3.5598,2.2167 -5.8762,4.2815 -0.6797,0.6059 -0.9114,1.2168 -1.7536,2.0068 -3.7345,3.5031 -7.3545,5.8984 -12.1578,8.3857 -5.9584,3.0853 -9.3149,4.3065 -15.781,6.8172 -2.2498,0.8736 -2.499,1.3404 -2.7103,3.2224 -0.9276,8.2629 -2.0308,38.4469 -2.1247,60.885 l -0.07,11.96404 c 0,0 2.6626,0.88505 3.982,1.36146 8.2142,2.966 11.5923,14.5757 6.8077,21.6745 -8.4071,12.4733 -27.4422,6.61641 -27.4342,-8.48629 0,-6.2084 2.9385,-10.29591 7.8391,-12.93511 1.582,-0.852 2.263,-1.03099 3.9385,-1.4155 l 0.2557,-33.0804 c -0.097,-12.7603 0.6072,-26.1725 0.8823,-38.7104 0.047,-2.1375 -0.2418,-3.5219 -1.7161,-4.6283 -2.1661,-1.6256 -6.2338,-3.7119 -6.2338,-3.7119 -4.4821,-2.4927 -7.3737,-4.4395 -10.2786,-6.7307 -2.644,-2.0853 -5.3602,-4.3655 -7.6559,-7.4832 -0.3053,-0.4147 -0.5084,-1.5826 -0.7103,-1.9895 -0.8455,-1.7047 -2.4115,-4.3007 -2.8918,-4.6033 -1.7233,-1.0857 -9.3141,-5.0793 -20.3141,-12.1708 -15.1965,-9.7969 -20.2761,-12.6128 -21.1497,-11.7242 -1.3232,1.3461 -32.3334,52.4785 -32.6444,53.827 -0.1132,0.4913 9.0191,6.9149 20.2941,14.2747 11.275,7.3598 20.6314,14.0251 20.7919,14.8117 0.1949,0.9548 -6.8684,5.2241 -21.2477,12.8432 -11.8468,6.2771 -21.5301,11.863 -21.5183,12.413 0.05,2.311 28.8087,56.0248 30.1367,56.2864 0.7997,0.1575 10.5949,-4.455 21.7672,-10.25 11.1723,-5.7951 20.9709,-10.5364 21.7746,-10.5364 1.262,0 1.363,3.3915 0.7404,24.8556 -0.5191,17.8955 -0.4089,25.0485 0.3933,25.5443 0.6128,0.3788 3.3101,0.9487 5.9939,1.2666 4.3494,0.5151 5.1669,1.021 7.5238,4.6558 3.8012,5.8623 3.6983,13.9462 -0.2846,22.3653 -2.588,5.4703 -18.2642,29.8904 -30.0507,46.8124 -3.2877,4.7201 -4.0747,6.6399 -3.6895,9 0.7152,4.3815 1.1257,5.8405 2.0678,7.3497 0.6785,1.087 0.4429,1.1359 -1.2104,0.2511 -1.1291,-0.6043 -2.3388,-1.9992 -2.6881,-3.0998 -0.83,-2.6151 -3.0046,-2.5469 -4.8961,0.1536 -2.0503,2.9272 -0.8164,4.8785 5.0754,8.0261 8.7295,4.6637 22.8765,8.091 40.3604,9.7781 12.8805,1.2429 42.5837,0.4486 52.9251,-1.4153 z m -1.2277,-126.4028 c 0.5706,-15.9493 0.4658,-21.559 -0.4166,-22.2905 -1.6142,-1.3382 -2.1027,3.3532 -2.8272,27.1498 -0.5341,17.5405 -0.4393,19.3469 0.9437,17.9768 1.2348,-1.2232 1.6876,-5.7187 2.3001,-22.8361 z m 80.3793,-115.9095 c -4.0778,-8.0781 -27.2326,-51.6413 -27.7177,-52.1479 -3.8764,-4.0479 8.4836,21.1712 25.3221,51.6667 4.339,7.8581 6.3204,8.2562 2.3956,0.4812 z m -99.5078,-19.9366 c 5.0844,-2.4176 9.5684,-5.1726 12.3143,-7.2448 0.8326,-0.6283 2.1857,-1.0887 2.8854,-1.3756 2.3138,-0.9484 4.1682,-2.303 4.5029,-3.3212 0.6811,-2.0717 0.9827,-6.603 1.1918,-14.853 0.2091,-8.25 0.5189,-19.275 0.6884,-24.5 l 0.3083,-9.5 -5.6757,-0.6101 c -3.1215,-0.3356 -18.0166,-0.9381 -33.1001,-1.339 l -27.4246,-0.7288 -0.6411,5.3389 c -0.3526,2.9364 -0.683,11.189 -0.7342,18.339 -0.051,7.15 -0.6718,15.631 -0.8273,18.8942 -0.1958,4.1126 -0.3522,6.239 0.1031,7.7192 0.3578,1.1634 0.8597,1.6203 1.9422,2.5507 0.5607,0.4819 1.2079,0.4769 1.5941,0.7899 3.5704,2.8931 10.8837,8.8632 17.1078,12.1395 8.2011,4.3169 12.2709,4.1174 25.7647,-2.2989 z m -51.6684,-16.696 c -1.7547,-2.6483 -33.3279,-21.5982 -34.8508,-21.5869 -0.8743,0.01 2.6853,2.7485 7.9103,6.0934 5.225,3.3449 13.55,8.6967 18.5,11.8929 8.275,5.3431 10.687,6.9913 8.4405,3.6006 z m 76.5475,-11.2759 c 1.5044,-27.8534 1.5197,-33.3227 0.093,-33.3227 -1.5617,0 -2.1156,5.6982 -3.061,31.4933 -0.4988,13.6088 -0.4092,14.7929 0.9708,12.8228 0.9635,-1.3757 1.6949,-5.4018 1.9969,-10.9934 z"
       inkscape:connector-curvature="0"
       sodipodi:nodetypes="ssssssssssssssssssscscssscssssssssscssssccsscsssssscsssccssssssssssssssssscssscssssssssscsscssssssssscsssccssccc" />
    <path
       sodipodi:nodetypes="ssssssssssssssssssscscssscssssssssscssssccsscsssssscsssccssssssssssssssssscssscssssssssscsscssssssssscsssccssccc"
       inkscape:connector-curvature="0"
       d="m 382.3441,755.35015 c 11.137,-2.0073 17.4327,-4.166 21.0659,-7.2231 3.5076,-2.9515 3.618,-3.6714 0.969,-6.3204 -2.6091,-2.6091 -3.4408,-2.5228 -4.8181,0.5 -0.6265,1.375 -1.5729,2.5 -2.1031,2.5 -1.0884,0 -0.6805,-3.1026 0.7423,-5.6449 1.5114,-2.7007 -0.1317,-6.437 -8.5953,-19.5453 -9.7262,-15.0635 -22.2566,-36.8072 -24.5382,-42.5801 -2.2702,-5.7443 -2.1571,-12.8834 0.2761,-17.4233 1.432,-2.6717 1.6351,-3.7973 0.75,-4.1562 -0.6675,-0.2708 1.1222,-0.5279 3.9773,-0.5713 2.855,-0.043 5.3988,-0.4164 5.6528,-0.8289 0.2541,-0.4125 0.7496,-10.425 1.1013,-22.25 0.7159,-24.0747 1.1155,-28.0001 2.8502,-28 0.6626,0 10.5801,6.075 22.0389,13.5 11.4589,7.425 21.204,13.5 21.656,13.5 0.4519,0 8.7901,-12.4204 18.5293,-27.6008 14.6574,-22.8463 17.4727,-27.8141 16.344,-28.8399 -0.7499,-0.6816 -10.4704,-7.0169 -21.601,-14.0785 -11.1306,-7.0616 -20.0349,-13.0418 -19.7874,-13.2893 0.2475,-0.2475 10.1555,5.7445 22.0178,13.3155 11.8623,7.571 21.8542,13.4792 22.2041,13.1292 0.8199,-0.8199 2.8039,0.5628 -20.7968,-14.494 -11.3299,-7.2282 -21.3424,-13.1422 -22.25,-13.1422 -4.0682,0 -0.2495,-2.4658 20.0998,-12.9783 11.9625,-6.1799 22.1353,-11.5957 22.6062,-12.0352 0.7103,-0.6628 -27.9765,-56.7439 -30.3335,-59.3004 -0.4127,-0.4476 -10.5447,4.4118 -22.5155,10.7985 -11.9708,6.3868 -21.1981,10.6826 -22.0039,10.9168 -1.1479,0.3335 -3.5598,2.2167 -5.8762,4.2815 -0.6797,0.6059 -0.9114,1.2168 -1.7536,2.0068 -3.7345,3.5031 -7.3545,5.8984 -12.1578,8.3857 -5.9584,3.0853 -9.3149,4.3065 -15.781,6.8172 -2.2498,0.8736 -2.499,1.3404 -2.7103,3.2224 -0.9276,8.2629 -2.0308,38.4469 -2.1247,60.885 l -0.07,11.96404 c 0,0 2.6626,0.88505 3.982,1.36146 8.2142,2.966 11.5923,14.5757 6.8077,21.6745 -8.4071,12.4733 -27.4422,6.61641 -27.4342,-8.48629 0,-6.2084 2.9385,-10.29591 7.8391,-12.93511 1.582,-0.852 2.263,-1.03099 3.9385,-1.4155 l 0.2557,-33.0804 c -0.097,-12.7603 0.6072,-26.1725 0.8823,-38.7104 0.047,-2.1375 -0.2418,-3.5219 -1.7161,-4.6283 -2.1661,-1.6256 -6.2338,-3.7119 -6.2338,-3.7119 -4.4821,-2.4927 -7.3737,-4.4395 -10.2786,-6.7307 -2.644,-2.0853 -5.3602,-4.3655 -7.6559,-7.4832 -0.3053,-0.4147 -0.5084,-1.5826 -0.7103,-1.9895 -0.8455,-1.7047 -2.4115,-4.3007 -2.8918,-4.6033 -1.7233,-1.0857 -9.3141,-5.0793 -20.3141,-12.1708 -15.1965,-9.7969 -20.2761,-12.6128 -21.1497,-11.7242 -1.3232,1.3461 -32.3334,52.4785 -32.6444,53.827 -0.1132,0.4913 9.0191,6.9149 20.2941,14.2747 11.275,7.3598 20.6314,14.0251 20.7919,14.8117 0.1949,0.9548 -6.8684,5.2241 -21.2477,12.8432 -11.8468,6.2771 -21.5301,11.863 -21.5183,12.413 0.05,2.311 28.8087,56.0248 30.1367,56.2864 0.7997,0.1575 10.5949,-4.455 21.7672,-10.25 11.1723,-5.7951 20.9709,-10.5364 21.7746,-10.5364 1.262,0 1.363,3.3915 0.7404,24.8556 -0.5191,17.8955 -0.4089,25.0485 0.3933,25.5443 0.6128,0.3788 3.3101,0.9487 5.9939,1.2666 4.3494,0.5151 5.1669,1.021 7.5238,4.6558 3.8012,5.8623 3.6983,13.9462 -0.2846,22.3653 -2.588,5.4703 -18.2642,29.8904 -30.0507,46.8124 -3.2877,4.7201 -4.0747,6.6399 -3.6895,9 0.7152,4.3815 1.1257,5.8405 2.0678,7.3497 0.6785,1.087 0.4429,1.1359 -1.2104,0.2511 -1.1291,-0.6043 -2.3388,-1.9992 -2.6881,-3.0998 -0.83,-2.6151 -3.0046,-2.5469 -4.8961,0.1536 -2.0503,2.9272 -0.8164,4.8785 5.0754,8.0261 8.7295,4.6637 22.8765,8.091 40.3604,9.7781 12.8805,1.2429 42.5837,0.4486 52.9251,-1.4153 z m -1.2277,-126.4028 c 0.5706,-15.9493 0.4658,-21.559 -0.4166,-22.2905 -1.6142,-1.3382 -2.1027,3.3532 -2.8272,27.1498 -0.5341,17.5405 -0.4393,19.3469 0.9437,17.9768 1.2348,-1.2232 1.6876,-5.7187 2.3001,-22.8361 z m 80.3793,-115.9095 c -4.0778,-8.0781 -27.2326,-51.6413 -27.7177,-52.1479 -3.8764,-4.0479 8.4836,21.1712 25.3221,51.6667 4.339,7.8581 6.3204,8.2562 2.3956,0.4812 z m -99.5078,-19.9366 c 5.0844,-2.4176 9.5684,-5.1726 12.3143,-7.2448 0.8326,-0.6283 2.1857,-1.0887 2.8854,-1.3756 2.3138,-0.9484 4.1682,-2.303 4.5029,-3.3212 0.6811,-2.0717 0.9827,-6.603 1.1918,-14.853 0.2091,-8.25 0.5189,-19.275 0.6884,-24.5 l 0.3083,-9.5 -5.6757,-0.6101 c -3.1215,-0.3356 -18.0166,-0.9381 -33.1001,-1.339 l -27.4246,-0.7288 -0.6411,5.3389 c -0.3526,2.9364 -0.683,11.189 -0.7342,18.339 -0.051,7.15 -0.6718,15.631 -0.8273,18.8942 -0.1958,4.1126 -0.3522,6.239 0.1031,7.7192 0.3578,1.1634 0.8597,1.6203 1.9422,2.5507 0.5607,0.4819 1.2079,0.4769 1.5941,0.7899 3.5704,2.8931 10.8837,8.8632 17.1078,12.1395 8.2011,4.3169 12.2709,4.1174 25.7647,-2.2989 z m -51.6684,-16.696 c -1.7547,-2.6483 -33.3279,-21.5982 -34.8508,-21.5869 -0.8743,0.01 2.6853,2.7485 7.9103,6.0934 5.225,3.3449 13.55,8.6967 18.5,11.8929 8.275,5.3431 10.687,6.9913 8.4405,3.6006 z m 76.5475,-11.2759 c 1.5044,-27.8534 1.5197,-33.3227 0.093,-33.3227 -1.5617,0 -2.1156,5.6982 -3.061,31.4933 -0.4988,13.6088 -0.4092,14.7929 0.9708,12.8228 0.9635,-1.3757 1.6949,-5.4018 1.9969,-10.9934 z"
       style="font-size:medium;font-style:normal;font-variant:normal;font-weight:normal;font-stretch:normal;text-indent:0;text-align:start;text-decoration:none;line-height:normal;letter-spacing:normal;word-spacing:normal;text-transform:none;direction:ltr;block-progression:tb;writing-mode:lr-tb;text-anchor:start;baseline-shift:baseline;color:#000000;fill:url(#radialGradient5102);fill-opacity:1;stroke:#004500;stroke-width:2;stroke-linecap:round;stroke-linejoin:round;stroke-miterlimit:4;stroke-opacity:1;stroke-dasharray:none;marker:none;visibility:visible;display:inline;overflow:visible;enable-background:accumulate;font-family:Sans;-inkscape-font-specification:Sans"
       id="path3090" />
    <path
       sodipodi:nodetypes="sssssscccccsssscscc"
       inkscape:connector-curvature="0"
       id="path4385"
       d="m 341.4488,588.53822 c -2.2057,-0.0645 -4.4972,0.62985 -5.7188,2 -1.8878,2.1175 -2.835,5.22453 -2.2187,7.90625 0.7744,3.37014 3.535,6.22793 6.75,7.09375 4.9468,1.33226 10.1636,-2.51132 10.0312,-7.78125 -0.1461,-5.81961 -3.8332,-9.07229 -8.8437,-9.21875 z m -0.875,7.28125 c 0.2363,-0.0467 0.489,-0.0196 0.7187,0.0312 0.2858,0.0632 0.6344,0.22817 0.9375,0.53125 0.3949,0.39481 0.5766,0.79446 0.5938,1.09375 0.01,0.13044 -0.013,0.34484 -0.094,0.53125 -0.08,0.18641 -0.2117,0.35197 -0.375,0.53125 -0.2558,0.28076 -0.5639,0.50135 -0.9375,0.59375 -0.3737,0.0924 -0.7439,0.018 -1.0625,-0.125 -0.3662,-0.16434 -0.6202,-0.34073 -0.7813,-0.5625 -0.1288,-0.17735 -0.2402,-0.4972 -0.25,-0.84375 -0.018,-0.62172 0.2467,-1.17498 0.5938,-1.46875 0.1965,-0.16633 0.4199,-0.26584 0.6562,-0.3125 z"
       style="fill:url(#linearGradient5099);fill-opacity:1;stroke:none;display:inline" />
    <path
       style="fill:url(#linearGradient5094);fill-opacity:1;stroke:url(#linearGradient5096);stroke-width:1.20000005;stroke-linecap:round;stroke-linejoin:round;stroke-miterlimit:4;stroke-opacity:1;stroke-dasharray:none;display:inline"
       d="m 318.076,485.22794 c -0.6288,0.39778 -0.1322,1.35223 0.5259,2.05492 3.5218,3.76038 9.9085,9.03531 16.2721,12.37814 2.9653,1.55768 5.5821,3.28755 6.8283,4.26202 1.5396,1.20397 1.4248,3.2738 1.4124,5.39645 -0.045,7.62587 -0.065,15.07127 -0.3643,23 -0.1416,3.39924 -0.1089,14.76938 -0.4413,25.11585 -0.2885,8.9775 -0.4715,18.62661 -0.548,27.36232 0.064,2.63355 1.9452,2.39404 2.1562,0.84375 0.2492,-1.83074 0.065,-3.89316 0.062,-5.32192 -0.014,-6.88647 0.084,-22.96607 0.5161,-38.50693 0.4325,-15.54086 0.9554,-30.59623 1.25,-34.29642 0.1715,-2.1554 0.6641,-3.01559 1.5038,-3.4694 1.2876,-0.69595 2.8822,-1.12619 4.1104,-1.59911 9.2062,-3.54487 16.4794,-6.71671 23.5366,-12.31943 1.0374,-0.82354 2.4593,-1.76483 2.0313,-2.56028 -0.6961,-1.29365 -4.3947,1.7556 -5.6045,2.48392 -3.6541,2.19983 -9.2672,5.06382 -13.5511,6.93907 -5.0866,2.22663 -9.0711,3.41777 -12.5739,3.31092 -3.5027,-0.10685 -6.9214,-1.54983 -11.0297,-4.05177 -6.2621,-3.8136 -8.7365,-5.42116 -12.5587,-8.82545 -1.249,-1.11248 -2.8836,-2.6081 -3.534,-2.19665 z"
       id="path3837"
       inkscape:connector-curvature="0"
       sodipodi:nodetypes="ssssscscssssssssssssss" />
    <path
       style="fill:url(#radialGradient5091);fill-opacity:1;stroke:#363636;stroke-width:1.5;stroke-linecap:round;stroke-linejoin:round;stroke-miterlimit:4;stroke-opacity:1;display:inline"
       d="m 341.4488,588.53822 c -2.2057,-0.0645 -4.4972,0.62985 -5.7188,2 -1.8878,2.1175 -2.835,5.22453 -2.2187,7.90625 0.7744,3.37014 3.535,6.22793 6.75,7.09375 4.9468,1.33226 10.1636,-2.51132 10.0312,-7.78125 -0.1461,-5.81961 -3.8332,-9.07229 -8.8437,-9.21875 z m -0.875,7.28125 c 0.2363,-0.0467 0.489,-0.0196 0.7187,0.0312 0.2858,0.0632 0.6344,0.22817 0.9375,0.53125 0.3949,0.39481 0.5766,0.79446 0.5938,1.09375 0.01,0.13044 -0.013,0.34484 -0.094,0.53125 -0.08,0.18641 -0.2117,0.35197 -0.375,0.53125 -0.2558,0.28076 -0.5639,0.50135 -0.9375,0.59375 -0.3737,0.0924 -0.7439,0.018 -1.0625,-0.125 -0.3662,-0.16434 -0.6202,-0.34073 -0.7813,-0.5625 -0.1288,-0.17735 -0.2402,-0.4972 -0.25,-0.84375 -0.018,-0.62172 0.2467,-1.17498 0.5938,-1.46875 0.1965,-0.16633 0.4199,-0.26584 0.6562,-0.3125 z"
       id="path3857"
       inkscape:connector-curvature="0"
       sodipodi:nodetypes="sssssscccccsssscscc" />
    <path
       sodipodi:nodetypes="sssssssscssssssssssss"
       inkscape:connector-curvature="0"
       id="path4389"
       d="m 345.196,582.95866 c -0.2738,0.23517 -0.3219,1.6292 -0.3046,2.10937 0.062,1.71832 0.2301,1.78126 2.1328,3.14845 1.8924,1.35979 3.3752,3.44074 4.2031,5.97656 0.5944,1.8205 0.654,4.42619 0.1563,6.09375 -1.3552,4.54032 -5.4989,7.31699 -9.7134,6.90403 -2.6377,-0.25846 -4.5114,-1.02693 -6.5679,-3.12278 -2.8331,-2.88745 -3.891,-6.54987 -2.9062,-10.125 0.4665,-1.69389 1.6874,-3.67368 2.5113,-4.57701 1.5941,-1.43659 3.0753,-2.06595 4.9075,-2.71307 1.1659,-0.41176 1.26,-2.92407 0.7576,-3.56694 -0.6582,-0.84214 -2.8468,0.39697 -3.7389,0.94855 -2.3743,1.468 -4.9293,3.84643 -6.1875,8.08035 -0.5592,1.88151 -0.5738,5.34682 0.279,7.83256 0.8869,2.58515 2.6477,5.30973 4.8596,6.78034 2.3342,1.55197 5.0212,2.73861 7.7858,2.74843 2.8525,0.0101 6.3377,-1.17599 8.4173,-2.69363 2.5143,-1.83485 3.7704,-4.48483 4.4288,-6.60436 1.096,-3.52796 1.0249,-6.50899 -0.4991,-9.93957 -1.5972,-3.59523 -3.4758,-5.30849 -6.0523,-6.48315 -1.4115,-0.64351 -4.0649,-1.14412 -4.4692,-0.79688 z"
       style="fill:url(#linearGradient5088);fill-opacity:1;stroke:none;display:inline" />
    <path
       style="fill:url(#radialGradient5085);fill-opacity:1;stroke:#363636;stroke-width:1.5;stroke-linecap:round;stroke-linejoin:round;stroke-miterlimit:4;stroke-opacity:1;display:inline"
       d="m 345.196,582.95866 c -0.2738,0.23517 -0.3219,1.6292 -0.3046,2.10937 0.062,1.71832 0.2301,1.78126 2.1328,3.14845 1.8924,1.35979 3.3752,3.44074 4.2031,5.97656 0.5944,1.8205 0.654,4.42619 0.1563,6.09375 -1.3552,4.54032 -5.4989,7.31699 -9.7134,6.90403 -2.6377,-0.25846 -4.5114,-1.02693 -6.5679,-3.12278 -2.8331,-2.88745 -3.891,-6.54987 -2.9062,-10.125 0.4665,-1.69389 1.6874,-3.67368 2.5113,-4.57701 1.5941,-1.43659 3.0753,-2.06595 4.9075,-2.71307 1.1659,-0.41176 1.26,-2.92407 0.7576,-3.56694 -0.6582,-0.84214 -2.8468,0.39697 -3.7389,0.94855 -2.3743,1.468 -4.9293,3.84643 -6.1875,8.08035 -0.5592,1.88151 -0.5738,5.34682 0.279,7.83256 0.8869,2.58515 2.6477,5.30973 4.8596,6.78034 2.3342,1.55197 5.0212,2.73861 7.7858,2.74843 2.8525,0.0101 6.3377,-1.17599 8.4173,-2.69363 2.5143,-1.83485 3.7704,-4.48483 4.4288,-6.60436 1.096,-3.52796 1.0249,-6.50899 -0.4991,-9.93957 -1.5972,-3.59523 -3.4758,-5.30849 -6.0523,-6.48315 -1.4115,-0.64351 -4.0649,-1.14412 -4.4692,-0.79688 z"
       id="path3867"
       inkscape:connector-curvature="0"
       sodipodi:nodetypes="sssssssscssssssssssss" />
    <path
       id="path2991"
       style="font-size:medium;font-style:normal;font-variant:normal;font-weight:normal;font-stretch:normal;text-indent:0;text-align:start;text-decoration:none;line-height:normal;letter-spacing:normal;word-spacing:normal;text-transform:none;direction:ltr;block-progression:tb;writing-mode:lr-tb;text-anchor:start;baseline-shift:baseline;color:#000000;fill:#000000;fill-opacity:1;stroke:none;stroke-width:0.89999998;marker:none;visibility:visible;display:inline;overflow:visible;enable-background:accumulate;font-family:Sans;-inkscape-font-specification:Sans"
       d="m 339.2953,597.56365 c 0.032,1.0529 0.8012,1.4844 1.6489,1.6047 0.8477,0.1203 1.81,-0.6212 1.8732,-1.5827 0.063,-0.9615 -0.9277,-1.8522 -1.8236,-1.8235 -0.8958,0.029 -1.7305,0.7485 -1.6985,1.8015 z m -8.5908,161.1753 c -26.9233,-2.072 -48.2846,-8.9167 -49.8333,-15.9679 -0.7605,-3.4626 1.2931,-7.4441 4.3381,-8.4106 1.036,-0.3288 2.5469,-2.2864 3.3576,-4.3502 0.8107,-2.0639 4.4102,-7.8107 7.9988,-12.7707 11.7265,-16.2075 26.0781,-39.6098 27.9197,-45.5272 3.104,-9.9731 -0.8924,-16.9912 -10.6064,-18.6258 l -5,-0.8414 0.3846,-24.8475 c 0.2651,-17.1264 0.057,-24.7299 -0.6684,-24.4692 -0.5792,0.208 -10.2128,5.0779 -21.408,10.8221 -12.1924,6.2559 -20.9885,10.2009 -21.9349,9.8377 -2.2621,-0.8681 -31.0926,-57.2221 -30.694,-59.9967 0.2547,-1.7734 4.1282,-4.2519 18.8207,-12.0426 10.175,-5.3954 19.566,-10.3976 20.8688,-11.1162 2.2709,-1.2526 1.5133,-1.8601 -18.3231,-14.6935 -17.4222,-11.2714 -20.629,-13.7167 -20.2931,-15.474 0.2195,-1.1479 7.9424,-14.5457 17.162,-29.7729 l 16.7629,-27.6857 4.5686,0 c 4.0665,0 6.1939,1.0441 19.3561,9.5 8.1332,5.225 15.0075,9.5 15.2763,9.5 0.2687,0 0.631,-1.2375 0.8051,-2.75 0.189,-1.6431 1.1719,-3.1258 2.4416,-3.6834 2.0042,-0.8803 2.175,-1.9625 3,-19 l 0.8748,-18.0666 30.5,0.226 c 16.775,0.1243 33.3744,0.5043 36.8877,0.8443 l 6.3877,0.6183 -0.4957,18.9057 -0.4957,18.9057 2.858,0 c 3.7944,0 3.704,2.0644 -0.3091,7.0582 -1.7419,2.1675 -3.8935,5.0013 -2.7225,4.3855 0.3061,-0.1609 9.2072,-4.2081 19.9171,-9.8947 21.4745,-11.4022 24.7604,-12.5935 27.1322,-9.8369 3.2482,3.7751 30.9232,57.7086 30.6377,59.707 -0.2286,1.5992 -5.1972,4.627 -21.4654,13.0809 -11.6424,6.05 -21.4444,11.277 -21.7823,11.6155 -0.3378,0.3386 8.8455,6.6386 20.4075,14 15.8889,10.1165 21.0242,13.8745 21.0322,15.3914 0.012,2.1957 -34.1177,56.1049 -36.8207,58.1604 -3.4852,2.6504 -6.7071,1.2798 -25.1687,-10.7066 l -18.5,-12.0113 -0.6185,11.2753 c -0.3401,6.2014 -0.6776,16.0821 -0.75,21.9572 -0.1291,10.4878 -0.1823,10.718 -2.9253,12.6712 -1.5366,1.0942 -4.3347,2.1373 -6.2181,2.3181 -2.5874,0.2484 -3.9819,1.1591 -5.7062,3.7266 -2.648,3.9431 -2.8851,8.141 -0.7945,14.0665 1.7418,4.9367 16.1792,29.8374 26.3226,45.3992 3.8945,5.9749 7.3521,12.0979 7.6834,13.6067 0.3314,1.5087 1.6763,3.3178 2.9886,4.0201 3.3248,1.7794 5.1189,6.3952 3.6979,9.514 -4.0681,8.9286 -39.9673,14.2667 -76.8544,11.428 z m 51.6396,-3.3888 c 11.137,-2.0073 17.4327,-4.166 21.0659,-7.2231 3.5076,-2.9515 3.618,-3.6714 0.969,-6.3204 -2.6091,-2.6091 -3.4408,-2.5228 -4.8181,0.5 -0.6265,1.375 -1.5729,2.5 -2.1031,2.5 -1.0884,0 -0.6805,-3.1026 0.7423,-5.6449 1.5114,-2.7007 -0.1317,-6.437 -8.5953,-19.5453 -9.7262,-15.0635 -22.2566,-36.8072 -24.5382,-42.5801 -2.2702,-5.7443 -2.1571,-12.8834 0.2761,-17.4233 1.432,-2.6717 1.6351,-3.7973 0.75,-4.1562 -0.6675,-0.2708 1.1222,-0.5279 3.9773,-0.5713 2.855,-0.043 5.3988,-0.4164 5.6528,-0.8289 0.2541,-0.4125 0.7496,-10.425 1.1013,-22.25 0.7159,-24.0747 1.1155,-28.0001 2.8502,-28 0.6626,0 10.5801,6.075 22.0389,13.5 11.4589,7.425 21.204,13.5 21.656,13.5 0.4519,0 8.7901,-12.4204 18.5293,-27.6008 14.6574,-22.8463 17.4727,-27.8141 16.344,-28.8399 -0.7499,-0.6816 -10.4704,-7.0169 -21.601,-14.0785 -11.1306,-7.0616 -20.0349,-12.68825 -19.7874,-13.2893 0.1332,-0.32365 10.1555,5.7445 22.0178,13.3155 11.8623,7.571 21.8542,13.4792 22.2041,13.1292 0.8199,-0.8199 2.8039,0.5628 -20.7968,-14.494 -11.3299,-7.2282 -21.3424,-13.1422 -22.25,-13.1422 -4.0682,0 -0.2495,-2.4658 20.0998,-12.9783 11.9625,-6.1799 22.1353,-11.5957 22.6062,-12.0352 0.7103,-0.6628 -27.9765,-56.7439 -30.3335,-59.3004 -0.4127,-0.4476 -10.5447,4.4118 -22.5155,10.7985 -11.9708,6.3868 -21.1981,10.6826 -22.0039,10.9168 -1.1479,0.3335 -3.5598,2.2167 -5.8762,4.2815 -0.6797,0.6059 -0.9114,1.2168 -1.7536,2.0068 -3.7345,3.5031 -7.3545,5.8984 -12.1578,8.3857 -5.9584,3.0853 -9.3149,4.3065 -15.781,6.8172 -2.2498,0.8736 -2.499,1.3404 -2.7103,3.2224 -0.9276,8.2629 -2.0308,38.4469 -2.1247,60.885 l -0.07,11.96404 c 0,0 2.6626,0.88505 3.982,1.36146 8.2142,2.966 11.5923,14.5757 6.8077,21.6745 -8.4071,12.4733 -27.4422,6.61641 -27.4342,-8.48629 0,-6.2084 2.9385,-10.29591 7.8391,-12.93511 1.582,-0.852 2.263,-1.03099 3.9385,-1.4155 l 0.2557,-33.0804 c -0.097,-12.7603 0.6072,-26.1725 0.8823,-38.7104 0.047,-2.1375 -0.2418,-3.5219 -1.7161,-4.6283 -2.1661,-1.6256 -6.2338,-3.7119 -6.2338,-3.7119 -4.4821,-2.4927 -7.3737,-4.4395 -10.2786,-6.7307 -2.644,-2.0853 -5.3602,-4.3655 -7.6559,-7.4832 -0.3053,-0.4147 -0.5084,-1.5826 -0.7103,-1.9895 -0.8455,-1.7047 -2.4115,-4.3007 -2.8918,-4.6033 -1.7233,-1.0857 -9.3141,-5.0793 -20.3141,-12.1708 -15.1965,-9.7969 -20.2761,-12.6128 -21.1497,-11.7242 -1.3232,1.3461 -32.3334,52.4785 -32.6444,53.827 -0.1132,0.4913 9.0191,6.9149 20.2941,14.2747 11.275,7.3598 20.6314,14.0251 20.7919,14.8117 0.1949,0.9548 -6.8684,5.2241 -21.2477,12.8432 -11.8468,6.2771 -21.5301,11.863 -21.5183,12.413 0.05,2.311 28.8087,56.0248 30.1367,56.2864 0.7997,0.1575 10.5949,-4.455 21.7672,-10.25 11.1723,-5.7951 20.9709,-10.5364 21.7746,-10.5364 1.262,0 1.363,3.3915 0.7404,24.8556 -0.5191,17.8955 -0.4089,25.0485 0.3933,25.5443 0.6128,0.3788 3.3101,0.9487 5.9939,1.2666 4.3494,0.5151 5.1669,1.021 7.5238,4.6558 3.8012,5.8623 3.6983,13.9462 -0.2846,22.3653 -2.588,5.4703 -18.2642,29.8904 -30.0507,46.8124 -3.2877,4.7201 -4.0747,6.6399 -3.6895,9 0.7152,4.3815 1.1257,5.8405 2.0678,7.3497 0.6785,1.087 0.4429,1.1359 -1.2104,0.2511 -1.1291,-0.6043 -2.3388,-1.9992 -2.6881,-3.0998 -0.83,-2.6151 -3.0046,-2.5469 -4.8961,0.1536 -2.0503,2.9272 -0.8164,4.8785 5.0754,8.0261 8.7295,4.6637 22.8765,8.091 40.3604,9.7781 12.8805,1.2429 42.5837,0.4486 52.9251,-1.4153 z m -1.2277,-126.4028 c 0.5706,-15.9493 0.4658,-21.559 -0.4166,-22.2905 -1.6142,-1.3382 -2.1027,3.3532 -2.8272,27.1498 -0.5341,17.5405 -0.4393,19.3469 0.9437,17.9768 1.2348,-1.2232 1.6876,-5.7187 2.3001,-22.8361 z m -36.3319,-19.68259 c 4.9815,-0.69457 8.3511,-2.81545 10.416,-6.42474 3.3305,-5.82153 2.4587,-17.28284 -7.8825,-19.73247 -2.105,-0.49862 -2.4199,-0.47717 -2.373,1.7406 0.034,1.63098 0.3574,2.1741 2.0718,3.3219 2.0813,1.3936 4.7539,5.404 4.7071,9.554 -0.053,4.7345 -3.9711,9.13603 -8.4503,9.41623 -4.1923,0.2622 -6.456,-1.39463 -8.4335,-3.38563 -1.9774,-1.9911 -3.2502,-5.5129 -2.9775,-7.9506 0.2727,-2.4376 1.4559,-5.35796 2.8983,-6.49256 1.4424,-1.1346 3.3944,-2.28354 4.5334,-2.50484 1.2791,-0.2486 1.089,-1.44178 1.1838,-2.45226 0.095,-1.01062 0.1413,-1.07092 -0.2642,-1.314 -0.4055,-0.24309 -0.9417,0.0119 -2.1167,0.50376 -4.1855,1.75203 -7.8835,5.25551 -7.9988,10.88122 -0.1109,5.40752 1.8858,8.98866 3.9122,10.92678 1.6528,1.58074 6.3131,4.5346 10.7739,3.91261 z m 3.0985,-5.76691 c 4.0503,-3.785 2.4811,-10.0625 -0.1771,-12.6005 -3.9429,-3.7647 -10.6272,-2.7284 -12.7223,0.4505 -2.9435,4.4664 -1.6731,9.1929 1.2725,11.9923 3.0253,2.875 7.8176,3.7174 11.6269,0.1577 z m -15.554,-105.0328 c 1.534,0.8046 2.9069,1.4828 5.0717,2.6528 0,0 4.6438,2.4426 5.4205,4.2748 0.9064,2.1381 -0.2587,35.7731 -0.2587,35.7731 -0.15,11.2338 -1.1007,36.26132 -0.7971,44.46354 0.07,1.88454 2.295,1.86897 2.3149,0.0128 0.062,-5.76006 0.097,-34.35833 0.5324,-44.19745 0.6976,-15.78156 0.8395,-32.53057 1.3317,-35.38283 0.3853,-0.9324 0.9634,-1.9004 2.4286,-2.4371 0.5406,-0.1979 9.9966,-3.4321 16.5757,-6.9508 4.8026,-2.5685 9.6103,-6.0418 11.5717,-8.0525 0.9444,-0.9682 0.4125,-1.7859 -1.2934,-1.0275 -1.0869,0.4832 -4.9246,3.405 -12.3816,6.9687 -7.1541,3.419 -12.0774,5.5276 -16.7937,5.6458 -3.0905,0.077 -5.8173,-0.8523 -8.2058,-1.9364 -2.3375,-1.0611 -7.238,-4.2956 -10.4588,-6.3535 -3.1211,-1.9943 -5.2939,-4.162 -7.8367,-6.1697 -1.582,-1.249 -2.3726,-0.4404 -1.1626,1.1717 1.0547,1.4054 3.0619,3.6406 5.8009,5.8281 2.8688,2.2913 6.7441,4.9839 8.1406,5.7164 z m 129.1667,14.5728 c -4.0778,-8.0781 -27.2326,-51.6413 -27.7177,-52.1479 -3.8764,-4.0479 8.4836,21.1712 25.3221,51.6667 4.339,7.8581 6.3204,8.2562 2.3956,0.4812 z m -99.5078,-19.9366 c 5.0844,-2.4176 9.5684,-5.1726 12.3143,-7.2448 0.8326,-0.6283 2.1857,-1.0887 2.8854,-1.3756 2.3138,-0.9484 4.1682,-2.303 4.5029,-3.3212 0.6811,-2.0717 0.9827,-6.603 1.1918,-14.853 0.2091,-8.25 0.5189,-19.275 0.6884,-24.5 l 0.3083,-9.5 -5.6757,-0.6101 c -3.1215,-0.3356 -18.0166,-0.9381 -33.1001,-1.339 l -27.4246,-0.7288 -0.6411,5.3389 c -0.3526,2.9364 -0.683,11.189 -0.7342,18.339 -0.051,7.15 -0.6718,15.631 -0.8273,18.8942 -0.1958,4.1126 -0.3522,6.239 0.1031,7.7192 0.3578,1.1634 0.8597,1.6203 1.9422,2.5507 0.5607,0.4819 1.2079,0.4769 1.5941,0.7899 3.5704,2.8931 10.8837,8.8632 17.1078,12.1395 8.2011,4.3169 12.2709,4.1174 25.7647,-2.2989 z m -51.6684,-16.696 c -1.7547,-2.6483 -33.3279,-21.5982 -34.8508,-21.5869 -0.8743,0.01 2.6853,2.7485 7.9103,6.0934 5.225,3.3449 13.55,8.6967 18.5,11.8929 8.275,5.3431 10.687,6.9913 8.4405,3.6006 z m 76.5475,-11.2759 c 1.5044,-27.8534 1.5197,-33.3227 0.093,-33.3227 -1.5617,0 -2.1156,5.6982 -3.061,31.4933 -0.4988,13.6088 -0.4092,14.7929 0.9708,12.8228 0.9635,-1.3757 1.6949,-5.4018 1.9969,-10.9934 z"
       inkscape:connector-curvature="0"
       sodipodi:nodetypes="zzzzzssssssscsssssssssscsssssscsscccssssssssscsscsssssssssssssssssssssssssssssssscssscssssssssscssssccsscsssssscsssccssssssssssssssssscssscsssssssssscszsssscssscsscsssscssssssssssccsssssssssscsscssssssssscsssccssccc" />
  </g>
  <g
     inkscape:groupmode="layer"
     id="layer4"
     inkscape:label="Text 1"
     style="display:inline"
     transform="translate(-148.39955,-392.00755)">
    <g
       transform="scale(0.99999871,1.0000013)"
       style="font-size:53.97332764px;font-style:normal;font-weight:normal;line-height:125%;letter-spacing:0px;word-spacing:0px;fill:#000000;fill-opacity:1;stroke:none;font-family:Sans"
       id="text3852">
      <path
         d="m 667.46266,500.82864 10.05675,9.01312 c -14.80061,13.409 -31.08746,20.11349 -48.86061,20.1135 -19.10155,-10e-6 -35.3726,-6.72031 -48.81318,-20.16094 -13.44063,-13.44059 -20.16094,-29.71163 -20.16093,-48.81317 -1e-5,-18.97491 6.7203,-35.21433 20.16093,-48.7183 13.44058,-13.50375 29.71163,-20.25568 48.81318,-20.25581 17.77315,1.3e-4 34.06,6.76788 48.86061,20.30324 l -10.05675,8.91825 C 655.63481,410.7924 642.7002,405.57428 628.6588,405.57416 c -15.30656,1.2e-4 -28.38348,5.40799 -39.23081,16.22362 -10.84739,10.81584 -16.27107,23.87695 -16.27105,39.18337 -2e-5,15.36979 5.42366,28.47834 16.27105,39.32567 10.84733,10.84739 23.92425,16.27108 39.23081,16.27106 14.0414,2e-5 26.97601,-5.24973 38.80386,-15.74924 z"
         style="font-size:194.30395508px;font-variant:normal;font-stretch:normal;font-family:'Champagne &amp; Limousines';-inkscape-font-specification:'Champagne &amp; Limousines'"
         id="path3074"
         inkscape:connector-curvature="0" />
      <path
         d="m 737.67015,436.21878 c 13.09268,9e-5 24.22467,4.60152 33.396,13.80431 9.17115,9.20294 13.75677,20.35074 13.75687,33.44343 -1e-4,13.02953 -4.58572,24.16151 -13.75687,33.39599 -9.17133,9.2345 -20.30332,13.85174 -33.396,13.85175 -13.02954,-10e-6 -24.16152,-4.61725 -33.39599,-13.85175 -9.23451,-9.23448 -13.85175,-20.36646 -13.85175,-33.39599 0,-13.09269 4.61724,-24.24049 13.85175,-33.44343 9.23447,-9.20279 20.36645,-13.80422 33.39599,-13.80431 z m 0,13.66199 c -9.23454,8e-5 -17.12497,3.28908 -23.6713,9.867 -6.5464,6.57806 -9.81958,14.4843 -9.81956,23.71875 -2e-5,9.23453 3.25735,17.10915 9.77212,23.62387 6.51471,6.51476 14.42095,9.77213 23.71874,9.77212 9.23444,10e-6 17.12487,-3.25736 23.67131,-9.77212 6.54629,-6.51472 9.81947,-14.38934 9.81956,-23.62387 -9e-5,-9.23445 -3.27327,-17.14069 -9.81956,-23.71875 -6.54644,-6.57792 -14.43687,-9.86692 -23.67131,-9.867 z"
         style="font-size:194.30395508px;font-variant:normal;font-stretch:normal;font-family:'Champagne &amp; Limousines';-inkscape-font-specification:'Champagne &amp; Limousines'"
         id="path3076"
         inkscape:connector-curvature="0" />
      <path
         d="m 836.81452,454.90915 c -6.13529,1.20182 -11.00554,3.63694 -14.61075,7.30537 -6.32502,6.26181 -9.58239,13.7253 -9.77212,22.3905 l 0,43.83224 -13.37738,0 0,-85.10286 13.37738,0 0,9.01312 c 4.74372,-4.74366 10.43621,-8.15916 17.07749,-10.24649 z"
         style="font-size:194.30395508px;font-variant:normal;font-stretch:normal;font-family:'Champagne &amp; Limousines';-inkscape-font-specification:'Champagne &amp; Limousines'"
         id="path3078"
         inkscape:connector-curvature="0" />
      <path
         d="m 868.12326,485.55377 c -6.32502,-3.41546 -10.78414,-6.41983 -13.37737,-9.01313 -4.30101,-4.30094 -6.45151,-9.48743 -6.4515,-15.55949 -10e-6,-6.00868 2.15049,-11.17936 6.4515,-15.51206 4.30098,-4.33254 9.48747,-6.49885 15.5595,-6.49894 6.07195,9e-5 11.13195,2.02409 15.17999,6.072 3.92145,3.92158 5.8822,8.44395 5.88225,13.56712 l 0,2.46675 -11.7645,4.74375 c -0.82229,-6.00868 -1.9766,-9.77205 -3.46293,-11.29012 -1.48642,-1.51793 -3.43135,-2.27693 -5.83481,-2.277 -2.40353,7e-5 -4.45916,0.86976 -6.16688,2.60906 -1.70777,1.73945 -2.56165,3.77926 -2.56162,6.11944 -3e-5,2.40356 0.85385,4.45918 2.56162,6.16687 1.20172,1.26506 3.8266,3.16256 7.87463,5.6925 7.08395,3.8583 12.17557,7.33705 15.27487,10.43625 5.12319,5.18654 7.68481,11.38503 7.68487,18.59549 -6e-5,7.40027 -2.56168,13.69364 -7.68487,18.88012 -5.1233,5.1865 -11.35341,7.77975 -18.69037,7.77975 -7.33703,0 -13.58296,-2.59325 -18.73781,-7.77975 -5.15488,-5.18648 -7.73232,-11.70123 -7.73231,-19.54424 l 13.28249,-3.4155 c -1e-5,6.45152 1.29661,10.97389 3.88988,13.56712 2.59322,2.59326 5.69247,3.88989 9.29775,3.88987 3.60521,2e-5 6.72027,-1.29661 9.34518,-3.88987 2.62483,-2.59323 3.93727,-5.75573 3.93731,-9.4875 -4e-5,-3.54197 -1.32829,-6.60959 -3.98475,-9.20287 -1.51804,-1.51796 -4.77541,-3.88984 -9.77212,-7.11562 z"
         style="font-size:194.30395508px;font-variant:normal;font-stretch:normal;font-family:'Champagne &amp; Limousines';-inkscape-font-specification:'Champagne &amp; Limousines'"
         id="path3080"
         inkscape:connector-curvature="0" />
      <path
         d="m 926.56625,443.3344 0,85.10286 -13.2825,0 0,-85.10286 z m -6.54637,-27.98812 c 2.78297,1.2e-4 5.18647,0.9963 7.21049,2.98856 2.02398,1.99249 3.03598,4.38017 3.036,7.16306 -2e-5,2.9096 -1.01202,5.36054 -3.036,7.35282 -2.02402,1.99246 -4.42752,2.98865 -7.21049,2.98856 -2.84627,9e-5 -5.28139,-0.9961 -7.30538,-2.98856 -2.02401,-1.99228 -3.036,-4.44322 -3.036,-7.35282 0,-2.78289 1.01199,-5.17057 3.036,-7.16306 2.02399,-1.99226 4.45911,-2.98844 7.30538,-2.98856 z"
         style="font-size:194.30395508px;font-variant:normal;font-stretch:normal;font-family:'Champagne &amp; Limousines';-inkscape-font-specification:'Champagne &amp; Limousines'"
         id="path3082"
         inkscape:connector-curvature="0" />
      <path
         d="m 1006.451,528.43726 -15.36978,0 -18.78525,-32.54212 -18.88012,32.54212 -15.46462,0 26.75474,-46.29899 -26.84962,-38.80387 15.84413,0 18.50062,25.80599 18.50062,-25.80599 15.93898,0 -26.84961,38.89874 z"
         style="font-size:194.30395508px;font-variant:normal;font-stretch:normal;font-family:'Champagne &amp; Limousines';-inkscape-font-specification:'Champagne &amp; Limousines'"
         id="path3084"
         inkscape:connector-curvature="0" />
    </g>
    <g
       transform="scale(0.99999871,1.0000013)"
       style="font-size:97.72344208px;font-style:normal;font-variant:normal;font-weight:bold;font-stretch:normal;line-height:125%;letter-spacing:0px;word-spacing:0px;fill:#000000;fill-opacity:1;stroke:none;font-family:Arial;-inkscape-font-specification:Arial Bold"
       id="text3856">
      <path
         d="m 640.22799,790.97467 0,-209.22741 -74.72408,0 0,-42.60131 200.1231,0 0,42.60131 -74.55229,0 0,209.22741 z"
         style="font-size:351.80438232px;stroke:#000000;stroke-width:11.75318241;stroke-miterlimit:4;stroke-opacity:1;font-family:Arial;-inkscape-font-specification:Arial Bold"
         id="path3087"
         inkscape:connector-curvature="0" />
      <path
         d="m 798.78046,790.97467 0,-251.82872 50.84672,0 0,99.11676 99.6321,0 0,-99.11676 50.84672,0 0,251.82872 -50.84672,0 0,-110.11065 -99.6321,0 0,110.11065 z"
         style="font-size:351.80438232px;stroke:#000000;stroke-width:11.75318241;stroke-miterlimit:4;stroke-opacity:1;font-family:Arial;-inkscape-font-specification:Arial Bold"
         id="path3089"
         inkscape:connector-curvature="0" />
    </g>
  </g>
  <g
     inkscape:label="Text 2"
     id="g3893"
     inkscape:groupmode="layer"
     style="display:none"
     transform="translate(-148.39955,-392.00755)">
    <g
       transform="scale(0.99999871,1.0000013)"
       style="font-size:135.10670471px;font-style:normal;font-weight:normal;line-height:125%;letter-spacing:0px;word-spacing:0px;fill:#000000;fill-opacity:1;stroke:none;font-family:Sans"
       id="text3895">
      <path
         d="m -724.78538,688.87779 25.17418,22.56177 c -37.04907,33.56558 -77.81853,50.34835 -122.30851,50.34835 -47.81525,0 -88.54513,-16.82235 -122.18976,-50.4671 -33.64477,-33.64465 -50.46712,-74.37453 -50.4671,-122.18976 -2e-5,-47.49823 16.82233,-88.14895 50.4671,-121.95227 33.64463,-33.80274 74.37451,-50.70425 122.18976,-50.7046 44.48998,3.5e-4 85.25944,16.94144 122.30851,50.82335 l -25.17418,22.32427 c -29.60763,-26.12386 -61.9857,-39.18592 -97.13433,-39.18622 -38.31557,3e-4 -71.04988,13.53735 -98.20304,40.61117 -27.15335,27.07436 -40.72998,59.76909 -40.72993,98.0843 -5e-5,38.47387 13.57658,71.28735 40.72993,98.44054 27.15316,27.15332 59.88747,40.72995 98.20304,40.72992 35.14863,3e-5 67.5267,-13.1412 97.13433,-39.42372 z"
         style="font-size:486.38412476px;font-variant:normal;font-stretch:normal;font-family:'Champagne &amp; Limousines';-inkscape-font-specification:'Champagne &amp; Limousines'"
         id="path3092"
         inkscape:connector-curvature="0" />
      <path
         d="m -549.04113,527.14557 c 32.77376,2.3e-4 60.63949,11.5186 83.59727,34.55512 22.95734,23.03693 34.43612,50.94224 34.43638,83.71602 -2.6e-4,32.61568 -11.47904,60.48141 -34.43638,83.59727 -22.95778,23.11592 -50.82351,34.67387 -83.59727,34.67387 -32.61571,0 -60.48144,-11.55795 -83.59727,-34.67387 -23.11594,-23.11586 -34.67389,-50.98159 -34.67387,-83.59727 -2e-5,-32.77378 11.55793,-60.67909 34.67387,-83.71602 23.11583,-23.03652 50.98156,-34.55489 83.59727,-34.55512 z m 0,34.19889 c -23.11603,1.9e-4 -42.86744,8.23325 -59.25432,24.69919 -16.38702,16.46628 -24.5805,36.25728 -24.58044,59.37306 -6e-5,23.116 8.15384,42.82784 24.4617,59.13557 16.30771,16.30784 36.09871,24.46173 59.37306,24.4617 23.11575,3e-5 42.86717,-8.15386 59.25431,-24.4617 16.38676,-16.30773 24.58023,-36.01957 24.58045,-59.13557 -2.2e-4,-23.11578 -8.19369,-42.90678 -24.58045,-59.37306 -16.38714,-16.46594 -36.13856,-24.699 -59.25431,-24.69919 z"
         style="font-size:486.38412476px;font-variant:normal;font-stretch:normal;font-family:'Champagne &amp; Limousines';-inkscape-font-specification:'Champagne &amp; Limousines'"
         id="path3094"
         inkscape:connector-curvature="0" />
      <path
         d="m -300.86171,573.93154 c -15.35793,3.00842 -27.54919,9.10405 -36.57381,18.28691 -15.83288,15.67464 -23.98677,34.35734 -24.4617,56.04817 l 0,109.72142 -33.48641,0 0,-213.03055 33.48641,0 0,22.56176 c 11.87455,-11.87441 26.12407,-20.42412 42.7486,-25.64916 z"
         style="font-size:486.38412476px;font-variant:normal;font-stretch:normal;font-family:'Champagne &amp; Limousines';-inkscape-font-specification:'Champagne &amp; Limousines'"
         id="path3096"
         inkscape:connector-curvature="0" />
      <path
         d="m -222.48932,650.64154 c -15.83288,-8.5496 -26.995,-16.07018 -33.4864,-22.56176 -10.76635,-10.76618 -16.14951,-23.74907 -16.14948,-38.94873 -3e-5,-15.04099 5.38313,-27.98431 16.14948,-38.82998 10.76625,-10.84526 23.74915,-16.268 38.94872,-16.26822 15.19941,2.2e-4 27.86565,5.06672 37.99876,15.1995 9.81622,9.81655 14.72439,21.137 14.72452,33.96139 l 0,6.1748 -29.44904,11.87461 c -2.05837,-15.041 -4.94785,-24.46152 -8.66846,-28.26157 -3.72081,-3.79969 -8.5894,-5.69963 -14.60578,-5.69982 -6.01654,1.9e-4 -11.1622,2.1772 -15.43699,6.53104 -4.27493,4.3542 -6.41235,9.46028 -6.41229,15.31825 -6e-5,6.01663 2.13736,11.16229 6.41229,15.43699 3.00816,3.16672 9.57877,7.91656 19.71185,14.24954 17.73265,9.65815 30.47806,18.36619 38.23626,26.12415 12.82444,12.98301 19.23672,28.49915 19.23687,46.54848 -1.5e-4,18.52444 -6.41243,34.27808 -19.23687,47.26095 -12.8247,12.98292 -28.42001,19.47437 -46.78598,19.47437 -18.36612,0 -34.00102,-6.49145 -46.90472,-19.47437 -12.90376,-12.98287 -19.35563,-29.29066 -19.35561,-48.9234 l 33.24891,-8.54972 c -5e-5,16.14953 3.24568,27.46999 9.73718,33.96139 6.4914,6.49149 14.24947,9.73722 23.27424,9.73718 9.02462,4e-5 16.82227,-3.24569 23.39299,-9.73718 6.57051,-6.4914 9.85582,-14.4078 9.85593,-23.74922 -1.1e-4,-8.8663 -3.325,-16.54521 -9.97468,-23.03675 -3.79997,-3.79978 -11.95386,-9.73708 -24.4617,-17.81192 z"
         style="font-size:486.38412476px;font-variant:normal;font-stretch:normal;font-family:'Champagne &amp; Limousines';-inkscape-font-specification:'Champagne &amp; Limousines'"
         id="path3098"
         inkscape:connector-curvature="0" />
      <path
         d="m -76.194106,544.95749 0,213.03055 -33.248914,0 0,-213.03055 z m -16.386966,-70.06021 c 6.966388,2.8e-4 12.982852,2.49395 18.049411,7.481 5.066434,4.98761 7.599682,10.96449 7.599752,17.93067 -7e-5,7.28334 -2.533318,13.41855 -7.599752,18.40565 -5.066559,4.98757 -11.083023,7.48123 -18.049411,7.481 -7.124805,2.3e-4 -13.220428,-2.49343 -18.286898,-7.481 -5.06653,-4.9871 -7.59978,-11.12231 -7.59976,-18.40565 -2e-5,-6.96618 2.53323,-12.94306 7.59976,-17.93067 5.06647,-4.98705 11.162093,-7.48072 18.286898,-7.481 z"
         style="font-size:486.38412476px;font-variant:normal;font-stretch:normal;font-family:'Champagne &amp; Limousines';-inkscape-font-specification:'Champagne &amp; Limousines'"
         id="path3100"
         inkscape:connector-curvature="0" />
      <path
         d="m 123.7744,757.98804 -38.473744,0 -47.023465,-81.45984 -47.2609574,81.45984 -38.7112366,0 66.972814,-115.89622 -67.210306,-97.13433 39.6612054,0 46.3109886,64.59789 46.310988,-64.59789 39.898693,0 -67.210301,97.37182 z"
         style="font-size:486.38412476px;font-variant:normal;font-stretch:normal;font-family:'Champagne &amp; Limousines';-inkscape-font-specification:'Champagne &amp; Limousines'"
         id="path3102"
         inkscape:connector-curvature="0" />
    </g>
    <g
       transform="scale(0.99999871,1.0000013)"
       style="font-size:130.28593445px;font-style:normal;font-variant:normal;font-weight:bold;font-stretch:normal;line-height:125%;letter-spacing:0px;word-spacing:0px;fill:#000000;fill-opacity:1;stroke:none;font-family:Arial;-inkscape-font-specification:Arial Bold"
       id="text3899">
      <path
         d="m 668.04868,757.17902 0,-278.94424 -99.62294,0 0,-56.79653 266.80627,0 0,56.79653 -99.39392,0 0,278.94424 z"
         style="font-size:469.02938843px;stroke:#000000;stroke-width:11.7936573;stroke-miterlimit:4;stroke-opacity:1;font-family:Arial;-inkscape-font-specification:Arial Bold"
         id="path3105"
         inkscape:connector-curvature="0" />
      <path
         d="m 879.43254,757.17902 0,-335.74077 67.78941,0 0,132.14354 132.83055,0 0,-132.14354 67.7894,0 0,335.74077 -67.7894,0 0,-146.80071 -132.83055,0 0,146.80071 z"
         style="font-size:469.02938843px;stroke:#000000;stroke-width:11.7936573;stroke-miterlimit:4;stroke-opacity:1;font-family:Arial;-inkscape-font-specification:Arial Bold"
         id="path3107"
         inkscape:connector-curvature="0" />
    </g>
  </g>
  <g
     inkscape:groupmode="layer"
     id="layer2"
     inkscape:label="Text 3"
     style="display:none"
     transform="translate(-148.39955,-392.00755)">
    <g
       transform="scale(0.99999871,1.0000013)"
       style="font-size:30.44121361px;font-style:normal;font-weight:normal;line-height:125%;letter-spacing:0px;word-spacing:0px;fill:#000000;fill-opacity:1;stroke:none;display:inline;font-family:Sans"
       id="text3895-4">
      <path
         d="m 210.34203,863.06362 5.67206,5.08344 c -8.34762,7.56274 -17.53348,11.34411 -27.55762,11.34411 -10.77337,0 -19.95032,-3.79029 -27.53087,-11.37086 -7.58058,-7.58056 -11.37087,-16.75751 -11.37086,-27.53087 -1e-5,-10.70194 3.79028,-19.86105 11.37086,-27.47736 7.58055,-7.61617 16.7575,-11.42429 27.53087,-11.42437 10.02414,8e-5 19.21,3.81712 27.55762,11.45113 l -5.67206,5.02993 c -6.67096,-5.88602 -13.96614,-8.82907 -21.88556,-8.82914 -8.63298,7e-5 -16.00842,3.05014 -22.12637,9.1502 -6.11798,6.10019 -9.17696,13.46672 -9.17695,22.09961 -1e-5,8.66864 3.05897,16.06192 9.17695,22.17987 6.11795,6.11798 13.49339,9.17696 22.12637,9.17696 7.91942,0 15.2146,-2.96088 21.88556,-8.88265 z"
         style="font-size:109.58836365px;font-variant:normal;font-stretch:normal;font-family:'Champagne &amp; Limousines';-inkscape-font-specification:'Champagne &amp; Limousines'"
         id="path3110"
         inkscape:connector-curvature="0" />
      <path
         d="m 249.93939,826.62334 c 7.38433,6e-5 13.66283,2.59529 18.8355,7.7857 5.17257,5.19051 7.75888,11.47792 7.75894,18.86226 -6e-5,7.34871 -2.58637,13.62721 -7.75894,18.8355 -5.17267,5.2083 -11.45117,7.81245 -18.8355,7.81245 -7.34872,0 -13.62722,-2.60415 -18.8355,-7.81245 -5.20831,-5.20829 -7.81246,-11.48679 -7.81245,-18.8355 -1e-5,-7.38434 2.60414,-13.67175 7.81245,-18.86226 5.20828,-5.19041 11.48678,-7.78564 18.8355,-7.7857 z m 0,7.70544 c -5.20833,4e-5 -9.65857,1.85505 -13.35073,5.56503 -3.6922,3.71006 -5.53829,8.16922 -5.53828,13.37749 -1e-5,5.20832 1.83716,9.64964 5.51152,13.32397 3.67433,3.67436 8.13349,5.51153 13.37749,5.51153 5.20826,0 9.6585,-1.83717 13.35073,-5.51153 3.69214,-3.67433 5.53823,-8.11565 5.53828,-13.32397 -5e-5,-5.20827 -1.84614,-9.66743 -5.53828,-13.37749 -3.69223,-3.70998 -8.14247,-5.56499 -13.35073,-5.56503 z"
         style="font-size:109.58836365px;font-variant:normal;font-stretch:normal;font-family:'Champagne &amp; Limousines';-inkscape-font-specification:'Champagne &amp; Limousines'"
         id="path3112"
         inkscape:connector-curvature="0" />
      <path
         d="m 305.85729,837.1648 c -3.46034,0.67784 -6.20718,2.05126 -8.24053,4.12027 -3.56735,3.53169 -5.40452,7.74113 -5.51153,12.62835 l 0,24.72159 -7.5449,0 0,-47.99842 7.5449,0 0,5.08345 c 2.67548,-2.67546 5.88608,-4.60181 9.63179,-5.77908 z"
         style="font-size:109.58836365px;font-variant:normal;font-stretch:normal;font-family:'Champagne &amp; Limousines';-inkscape-font-specification:'Champagne &amp; Limousines'"
         id="path3114"
         inkscape:connector-curvature="0" />
      <path
         d="m 323.51557,854.44852 c -3.56735,-1.92634 -6.08231,-3.62082 -7.5449,-5.08345 -2.4258,-2.42575 -3.63869,-5.35096 -3.63868,-8.77563 -1e-5,-3.38892 1.21288,-6.30521 3.63868,-8.74888 2.42577,-2.44357 5.35098,-3.66538 8.77563,-3.66543 3.42461,5e-5 6.27847,1.1416 8.56159,3.42464 2.21171,2.21179 3.31758,4.76243 3.31761,7.65192 l 0,1.39126 -6.63523,2.6755 c -0.46377,-3.38893 -1.11481,-5.51149 -1.95311,-6.36769 -0.83835,-0.85611 -1.9353,-1.28419 -3.29086,-1.28423 -1.35561,4e-5 -2.51499,0.49055 -3.47815,1.47152 -0.96319,0.98105 -1.44478,2.13152 -1.44477,3.45139 -10e-6,1.35562 0.48158,2.515 1.44477,3.47815 0.67778,0.7135 2.15822,1.78369 4.44133,3.21059 3.99538,2.1761 6.86708,4.13813 8.6151,5.8861 2.8895,2.92523 4.33427,6.42121 4.3343,10.48795 -3e-5,4.17378 -1.4448,7.72327 -4.3343,10.64847 -2.88957,2.92522 -6.40338,4.38782 -10.54146,4.38782 -4.13812,0 -7.66085,-1.4626 -10.56822,-4.38782 -2.90737,-2.9252 -4.36106,-6.59954 -4.36106,-11.02304 l 7.4914,-1.92636 c -10e-6,3.63869 0.73129,6.18933 2.1939,7.65192 1.46259,1.46261 3.21058,2.19392 5.24398,2.19391 2.03336,10e-6 3.79026,-0.7313 5.27073,-2.19391 1.48041,-1.46259 2.22063,-3.24626 2.22066,-5.35099 -3e-5,-1.99769 -0.74916,-3.72784 -2.24742,-5.19047 -0.85618,-0.85614 -2.69335,-2.19388 -5.51152,-4.01324 z"
         style="font-size:109.58836365px;font-variant:normal;font-stretch:normal;font-family:'Champagne &amp; Limousines';-inkscape-font-specification:'Champagne &amp; Limousines'"
         id="path3116"
         inkscape:connector-curvature="0" />
      <path
         d="m 356.47769,830.63659 0,47.99842 -7.49139,0 0,-47.99842 z m -3.69219,-15.78543 c 1.56961,6e-5 2.9252,0.56192 4.06676,1.68556 1.14153,1.12377 1.7123,2.47044 1.71231,4.04 -1e-5,1.64103 -0.57078,3.02337 -1.71231,4.14702 -1.14156,1.12376 -2.49715,1.68562 -4.06676,1.68557 -1.60531,5e-5 -2.97873,-0.56181 -4.12026,-1.68557 -1.14155,-1.12365 -1.71233,-2.50599 -1.71232,-4.14702 -1e-5,-1.56956 0.57077,-2.91623 1.71232,-4.04 1.14153,-1.12364 2.51495,-1.6855 4.12026,-1.68556 z"
         style="font-size:109.58836365px;font-variant:normal;font-stretch:normal;font-family:'Champagne &amp; Limousines';-inkscape-font-specification:'Champagne &amp; Limousines'"
         id="path3118"
         inkscape:connector-curvature="0" />
      <path
         d="m 401.53306,878.63501 -8.66861,0 -10.59497,-18.35391 -10.64848,18.35391 -8.72212,0 15.0898,-26.11285 -15.14331,-21.88557 8.93616,0 10.43444,14.55471 10.43444,-14.55471 8.98967,0 -15.14332,21.93908 z"
         style="font-size:109.58836365px;font-variant:normal;font-stretch:normal;font-family:'Champagne &amp; Limousines';-inkscape-font-specification:'Champagne &amp; Limousines'"
         id="path3120"
         inkscape:connector-curvature="0" />
    </g>
    <g
       transform="scale(0.99999871,1.0000013)"
       style="font-size:29.35503387px;font-style:normal;font-variant:normal;font-weight:bold;font-stretch:normal;line-height:125%;letter-spacing:0px;word-spacing:0px;fill:#000000;fill-opacity:1;stroke:none;display:inline;font-family:Arial;-inkscape-font-specification:Arial Bold"
       id="text3899-9">
      <path
         d="m 428.88971,878.4527 0,-62.84958 -22.44628,0 0,-12.79696 60.11475,0 0,12.79696 -22.39468,0 0,62.84958 z"
         style="font-size:105.67811584px;stroke:#000000;stroke-width:2.65725684;stroke-miterlimit:4;stroke-opacity:1;font-family:Arial;-inkscape-font-specification:Arial Bold"
         id="path3123"
         inkscape:connector-curvature="0" />
      <path
         d="m 476.5171,878.4527 0,-75.64654 15.27379,0 0,29.77357 29.92838,0 0,-29.77357 15.27379,0 0,75.64654 -15.27379,0 0,-33.07601 -29.92838,0 0,33.07601 z"
         style="font-size:105.67811584px;stroke:#000000;stroke-width:2.65725684;stroke-miterlimit:4;stroke-opacity:1;font-family:Arial;-inkscape-font-specification:Arial Bold"
         id="path3125"
         inkscape:connector-curvature="0" />
    </g>
  </g>
</svg>
